<svg width="40" height="41" viewBox="0 0 40 41" fill="none" xmlns="http://www.w3.org/2000/svg">
<g clip-path="url(#clip0_140_551)">
<path opacity="0.5" d="M11.9111 35.0722C19.9593 39.5397 30.1046 36.6371 34.5721 28.5889C36.0199 25.99 36.7422 23.0496 36.6633 20.0757L36.6631 20.0622C36.6407 19.2226 36.5545 18.3859 36.4055 17.5593C35.9713 15.1241 34.9995 12.8164 33.5608 10.8043C32.122 8.79218 30.2527 7.12627 28.0888 5.92789C20.0405 1.46042 9.89521 4.36301 5.42774 12.4112C3.55725 15.7673 2.90964 19.6686 3.59546 23.4491C4.03065 25.8827 5.00284 28.1887 6.44131 30.1993C7.87977 32.2099 9.74834 33.8746 11.9111 35.0722Z" fill="#AEFFDE"/>
<path d="M15.4596 14.2374L18.7638 17.01L3.55338 17.7622C3.41568 18.5953 3.34241 19.4346 3.33081 20.2755L22.0703 19.3494C22.3213 19.3369 22.5627 19.2492 22.763 19.0975C22.9634 18.9459 23.1133 18.7373 23.1934 18.4992C23.2735 18.261 23.2799 18.0042 23.2118 17.7623C23.1438 17.5205 23.0044 17.3047 22.8119 17.1432L17.0666 12.3223C16.8126 12.1092 16.4844 12.0057 16.1541 12.0346C15.8239 12.0635 15.5186 12.2224 15.3055 12.4764C15.0924 12.7304 14.989 13.0586 15.0178 13.3888C15.0467 13.7191 15.2056 14.0243 15.4596 14.2374ZM17.6414 21.9621C17.3932 21.9792 17.1557 22.07 16.9593 22.2229C16.763 22.3758 16.6168 22.5838 16.5394 22.8203C16.462 23.0568 16.457 23.311 16.5249 23.5504C16.5928 23.7898 16.7307 24.0035 16.9208 24.164L22.6661 28.9849C22.92 29.198 23.2483 29.3015 23.5785 29.2726C23.9088 29.2437 24.214 29.0848 24.4271 28.8309C24.6402 28.5769 24.7437 28.2487 24.7148 27.9184C24.6859 27.5882 24.527 27.2829 24.2731 27.0698L20.9165 24.2533L36.4376 23.2527C36.5762 22.416 36.6503 21.5731 36.6619 20.7322L17.6414 21.9621Z" fill="#AEFFDE"/>
</g>
<defs>
<clipPath id="clip0_140_551">
<rect width="40" height="40" fill="white" transform="translate(0 0.5)"/>
</clipPath>
</defs>
</svg>
