<svg width="390" height="310" viewBox="0 0 390 310" fill="none" xmlns="http://www.w3.org/2000/svg">
<path fill-rule="evenodd" clip-rule="evenodd" d="M564.051 -257.084C613.46 -257.084 658.183 -234.297 690.566 -197.456C722.941 -160.615 742.967 -109.718 742.967 -53.5014C742.967 2.71585 722.941 53.6121 690.566 90.453C658.183 127.294 613.46 150.081 564.051 150.081C514.643 150.081 469.915 127.294 437.537 90.453C405.159 53.6121 385.132 2.71497 385.132 -53.5014C385.132 -109.719 405.159 -160.615 437.537 -197.456C469.915 -234.297 514.643 -257.084 564.051 -257.084ZM690.463 -197.123C658.112 -233.878 613.42 -256.613 564.051 -256.613C514.682 -256.613 469.989 -233.878 437.636 -197.123C405.284 -160.367 385.274 -109.589 385.274 -53.5006C385.274 2.58777 405.284 53.3648 437.636 90.1215C469.989 126.877 514.682 149.612 564.051 149.612C613.42 149.612 658.112 126.877 690.463 90.1215C722.814 53.3657 742.824 2.58777 742.824 -53.5006C742.824 -109.589 722.814 -160.367 690.463 -197.123Z" fill="black" fill-opacity="0.06"/>
<path fill-rule="evenodd" clip-rule="evenodd" d="M564.051 -271.398C617.041 -271.398 665.018 -247.009 699.748 -207.578C734.47 -168.146 755.952 -113.672 755.952 -53.5014C755.952 6.66867 734.47 61.1442 699.748 100.575C665.018 140.006 617.041 164.396 564.051 164.396C511.057 164.396 463.082 140.006 428.355 100.575C393.627 61.1442 372.148 6.66867 372.148 -53.5014C372.148 -113.672 393.627 -168.146 428.355 -207.578C463.082 -247.009 511.057 -271.398 564.051 -271.398ZM699.629 -207.231C664.931 -246.574 617.001 -270.909 564.051 -270.909C511.104 -270.909 463.168 -246.574 428.47 -207.231C393.773 -167.887 372.312 -113.536 372.312 -53.5006C372.312 6.53448 393.773 60.8863 428.47 100.229C463.168 139.573 511.104 163.908 564.051 163.908C617.001 163.908 664.931 139.573 699.629 100.229C734.327 60.8863 755.785 6.53448 755.785 -53.5006C755.785 -113.536 734.327 -167.887 699.629 -207.231Z" fill="black" fill-opacity="0.06"/>
<path fill-rule="evenodd" clip-rule="evenodd" d="M564.051 -285.712C620.629 -285.712 671.853 -259.721 708.93 -217.7C746.007 -175.677 768.937 -117.624 768.937 -53.5014C768.937 10.6215 746.007 68.6754 708.93 110.697C671.853 152.719 620.629 178.71 564.051 178.71C507.472 178.71 456.251 152.718 419.173 110.697C382.096 68.6745 359.162 10.6215 359.162 -53.5014C359.162 -117.624 382.095 -175.678 419.173 -217.7C456.251 -259.721 507.472 -285.712 564.051 -285.712ZM708.795 -217.338C671.749 -259.269 620.573 -285.204 564.051 -285.204C507.524 -285.204 456.348 -259.269 419.304 -217.338C382.261 -175.409 359.348 -117.483 359.348 -53.5006C359.348 10.4812 382.261 68.4078 419.304 110.337C456.348 152.268 507.524 178.203 564.051 178.203C620.573 178.203 671.749 152.268 708.795 110.337C745.84 68.4078 768.754 10.4821 768.754 -53.5006C768.754 -117.482 745.84 -175.409 708.795 -217.338Z" fill="black" fill-opacity="0.06"/>
<path fill-rule="evenodd" clip-rule="evenodd" d="M564.051 -300.026C624.209 -300.026 678.679 -272.433 718.111 -227.821C757.536 -183.208 781.922 -121.576 781.922 -53.5003C781.922 14.5755 757.536 76.2077 718.111 120.82C678.679 165.432 624.217 193.026 564.051 193.026C503.887 193.026 449.419 165.432 409.991 120.82C370.565 76.2077 346.178 14.5755 346.178 -53.5003C346.178 -121.576 370.565 -183.208 409.991 -227.821C449.419 -272.433 503.886 -300.026 564.051 -300.026ZM717.96 -227.447C678.576 -271.964 624.154 -299.498 564.051 -299.498C503.944 -299.498 449.528 -271.964 410.139 -227.447C370.75 -182.93 346.386 -121.43 346.386 -53.5003C346.386 14.4299 370.749 75.9288 410.139 120.446C449.528 164.963 503.943 192.497 564.051 192.497C624.154 192.497 678.568 164.963 717.96 120.446C757.353 75.9288 781.715 14.4299 781.715 -53.5003C781.715 -121.43 757.353 -182.93 717.96 -227.447Z" fill="black" fill-opacity="0.06"/>
<path fill-rule="evenodd" clip-rule="evenodd" d="M564.051 -314.341C627.798 -314.341 685.514 -285.146 727.293 -237.943C769.065 -190.739 794.907 -125.53 794.907 -53.5003C794.907 18.5292 769.065 83.7388 727.293 130.942C685.514 178.145 627.798 207.341 564.051 207.341C500.3 207.341 442.587 178.145 400.81 130.942C359.033 83.7388 333.192 18.5292 333.192 -53.5003C333.192 -125.53 359.033 -190.739 400.81 -237.943C442.587 -285.146 500.3 -314.341 564.051 -314.341ZM727.126 -237.554C685.395 -284.658 627.734 -313.792 564.051 -313.792C500.365 -313.792 442.708 -284.658 400.973 -237.554C359.238 -190.451 333.425 -125.377 333.425 -53.5012C333.425 18.3766 359.238 83.4485 400.973 130.553C442.708 177.656 500.365 206.791 564.051 206.791C627.734 206.791 685.395 177.656 727.126 130.553C768.866 83.4485 794.677 18.3757 794.677 -53.5012C794.677 -125.378 768.866 -190.451 727.126 -237.554Z" fill="black" fill-opacity="0.06"/>
<path fill-rule="evenodd" clip-rule="evenodd" d="M564.051 -328.655C631.386 -328.655 692.348 -297.858 736.475 -248.064C780.602 -198.271 807.892 -129.482 807.892 -53.5003C807.892 22.4812 780.602 91.2701 736.475 141.064C692.348 190.857 631.386 221.654 564.051 221.654C496.715 221.654 435.754 190.858 391.629 141.064C347.502 91.2701 320.209 22.4812 320.209 -53.5003C320.209 -129.482 347.502 -198.271 391.629 -248.064C435.755 -297.858 496.716 -328.655 564.051 -328.655ZM736.292 -247.662C692.213 -297.352 631.314 -328.087 564.051 -328.087C496.785 -328.087 435.889 -297.352 391.807 -247.662C347.727 -197.972 320.463 -129.326 320.463 -53.5011C320.463 22.3233 347.727 90.9701 391.807 140.66C435.889 190.35 496.785 221.085 564.051 221.085C631.314 221.085 692.213 190.35 736.292 140.66C780.371 90.9701 807.638 22.3233 807.638 -53.5011C807.638 -129.326 780.371 -197.972 736.292 -247.662Z" fill="black" fill-opacity="0.06"/>
<path fill-rule="evenodd" clip-rule="evenodd" d="M564.051 -342.97C634.975 -342.97 699.175 -310.57 745.657 -258.186C792.131 -205.803 820.877 -133.435 820.877 -53.5003C820.877 26.4339 792.131 98.802 745.657 151.185C699.175 203.569 634.975 235.969 564.051 235.969C493.13 235.969 428.924 203.57 382.448 151.185C335.971 98.802 307.224 26.4339 307.224 -53.5003C307.224 -133.435 335.971 -205.803 382.448 -258.186C428.924 -310.569 493.13 -342.97 564.051 -342.97ZM745.458 -257.77C699.032 -310.047 634.895 -342.382 564.051 -342.382C493.206 -342.382 429.069 -310.048 382.643 -257.77C336.217 -205.494 307.501 -133.272 307.501 -53.5012C307.501 26.27 336.217 98.4915 382.643 150.767C429.069 203.045 493.206 235.38 564.051 235.38C634.895 235.38 699.032 203.046 745.458 150.767C791.884 98.4915 820.599 26.27 820.599 -53.5012C820.599 -133.272 791.884 -205.494 745.458 -257.77Z" fill="black" fill-opacity="0.06"/>
<path fill-rule="evenodd" clip-rule="evenodd" d="M564.051 -357.284C638.555 -357.284 706.01 -323.282 754.839 -268.308C803.659 -213.334 833.862 -137.387 833.862 -53.5004C833.862 30.3858 803.659 106.333 754.839 161.307C706.01 216.281 638.555 250.283 564.051 250.283C489.544 250.283 422.091 216.281 373.265 161.307C324.439 106.333 294.238 30.3858 294.238 -53.5004C294.238 -137.387 324.439 -213.334 373.265 -268.308C422.091 -323.282 489.544 -357.284 564.051 -357.284ZM754.624 -267.878C705.851 -322.742 638.475 -356.676 564.051 -356.676C489.627 -356.676 422.249 -322.742 373.477 -267.878C324.706 -213.013 294.539 -137.219 294.539 -53.5004C294.539 30.2192 324.706 106.013 373.477 160.877C422.249 215.741 489.627 249.676 564.051 249.676C638.475 249.676 705.851 215.741 754.624 160.877C803.397 106.012 833.56 30.2183 833.56 -53.5004C833.56 -137.22 803.397 -213.014 754.624 -267.878Z" fill="black" fill-opacity="0.06"/>
<path fill-rule="evenodd" clip-rule="evenodd" d="M564.051 -371.598C642.143 -371.598 712.844 -335.994 764.02 -278.43C815.196 -220.865 846.847 -141.341 846.847 -53.5008C846.847 34.339 815.196 113.863 764.02 171.428C712.844 228.992 642.143 264.597 564.051 264.597C485.959 264.597 415.259 228.992 364.084 171.428C312.908 113.863 281.254 34.339 281.254 -53.5008C281.254 -141.341 312.907 -220.865 364.084 -278.43C415.259 -335.994 485.959 -371.598 564.051 -371.598ZM763.79 -277.986C712.669 -335.436 642.056 -370.971 564.051 -370.971C486.048 -370.971 415.428 -335.436 364.311 -277.986C313.194 -220.535 281.576 -141.167 281.576 -53.5008C281.576 34.1653 313.194 113.533 364.311 170.984C415.428 228.435 486.049 263.969 564.051 263.969C642.056 263.969 712.669 228.435 763.79 170.984C814.91 113.533 846.521 34.1653 846.521 -53.5008C846.521 -141.167 814.91 -220.535 763.79 -277.986Z" fill="black" fill-opacity="0.06"/>
<path fill-rule="evenodd" clip-rule="evenodd" d="M564.051 -385.913C645.732 -385.913 719.671 -348.706 773.202 -288.552C826.725 -228.397 859.832 -145.293 859.832 -53.5007C859.832 38.2919 826.725 121.396 773.202 181.55C719.671 241.704 645.732 278.911 564.051 278.911C482.373 278.911 408.428 241.704 354.902 181.55C301.376 121.396 268.269 38.2919 268.269 -53.5007C268.269 -145.293 301.376 -228.397 354.902 -288.552C408.428 -348.706 482.373 -385.913 564.051 -385.913ZM772.956 -288.093C719.488 -348.131 645.636 -385.265 564.051 -385.265C482.468 -385.265 408.609 -348.131 355.146 -288.093C301.682 -228.056 268.615 -145.114 268.615 -53.5007C268.615 38.1121 301.682 121.055 355.146 181.092C408.609 241.13 482.468 278.264 564.051 278.264C645.636 278.264 719.496 241.13 772.956 181.092C826.415 121.055 859.49 38.1121 859.49 -53.5007C859.49 -145.114 826.415 -228.056 772.956 -288.093Z" fill="black" fill-opacity="0.06"/>
<path fill-rule="evenodd" clip-rule="evenodd" d="M564.051 -400.227C649.312 -400.227 726.506 -361.417 782.384 -298.673C838.254 -235.928 872.817 -149.246 872.817 -53.5006C872.817 42.2448 838.254 128.927 782.384 191.672C726.506 254.416 649.312 293.226 564.051 293.226C478.788 293.226 401.596 254.416 345.72 191.672C289.845 128.927 255.284 42.2448 255.284 -53.5006C255.284 -149.246 289.845 -235.928 345.72 -298.673C401.596 -361.417 478.788 -400.227 564.051 -400.227ZM782.121 -298.201C726.315 -360.825 649.209 -399.56 564.051 -399.56C478.889 -399.56 401.789 -360.825 345.98 -298.201C290.171 -235.576 255.652 -149.062 255.652 -53.5006C255.652 42.0607 290.171 128.575 345.98 191.199C401.789 253.824 478.889 292.559 564.051 292.559C649.209 292.559 726.315 253.824 782.121 191.199C837.928 128.575 872.451 42.0607 872.451 -53.5006C872.451 -149.062 837.928 -235.576 782.121 -298.201Z" fill="black" fill-opacity="0.06"/>
<path fill-rule="evenodd" clip-rule="evenodd" d="M564.051 -414.542C652.9 -414.542 733.34 -374.13 791.565 -308.795C849.791 -243.459 885.802 -153.199 885.802 -53.5006C885.802 46.1968 849.791 136.457 791.565 201.794C733.34 267.129 652.9 307.54 564.051 307.54C475.202 307.54 394.764 267.129 336.539 201.794C278.313 136.458 242.299 46.1977 242.299 -53.5006C242.299 -153.198 278.313 -243.458 336.539 -308.795C394.764 -374.13 475.202 -414.542 564.051 -414.542ZM791.287 -308.309C733.133 -373.52 652.789 -413.855 564.051 -413.855C475.31 -413.855 394.969 -373.52 336.813 -308.309C278.66 -243.099 242.69 -153.009 242.69 -53.5006C242.69 46.0082 278.66 136.098 336.813 201.308C394.969 266.519 475.31 306.854 564.051 306.854C652.789 306.854 733.133 266.519 791.287 201.308C849.441 136.098 885.412 46.0074 885.412 -53.5006C885.412 -153.009 849.441 -243.099 791.287 -308.309Z" fill="black" fill-opacity="0.06"/>
<path fill-rule="evenodd" clip-rule="evenodd" d="M564.051 -428.855C656.481 -428.855 740.167 -386.842 800.747 -318.917C861.32 -250.99 898.787 -157.152 898.787 -53.5005C898.787 50.1506 861.32 143.989 800.747 211.916C740.167 279.842 656.489 321.855 564.051 321.855C471.616 321.855 387.931 279.841 327.356 211.916C266.782 143.989 229.315 50.1506 229.315 -53.5005C229.315 -157.152 266.782 -250.99 327.356 -318.917C387.931 -386.842 471.616 -428.855 564.051 -428.855ZM800.453 -318.417C739.952 -386.215 656.369 -428.149 564.051 -428.149C471.73 -428.149 388.148 -386.215 327.648 -318.417C267.149 -250.619 229.728 -156.956 229.728 -53.5005C229.728 49.955 267.149 143.617 327.648 211.416C388.148 279.215 471.729 321.149 564.051 321.149C656.369 321.149 739.952 279.214 800.453 211.416C860.954 143.617 898.373 49.955 898.373 -53.5005C898.373 -156.956 860.954 -250.619 800.453 -318.417Z" fill="black" fill-opacity="0.06"/>
<path fill-rule="evenodd" clip-rule="evenodd" d="M564.051 -443.17C660.069 -443.17 747.002 -399.554 809.929 -329.038C872.849 -258.521 911.772 -161.104 911.772 -53.5005C911.772 54.1035 872.849 151.521 809.929 222.037C747.002 292.554 660.069 336.169 564.051 336.169C468.031 336.169 381.101 292.553 318.175 222.037C255.251 151.521 216.33 54.1035 216.33 -53.5005C216.33 -161.104 255.251 -258.521 318.175 -329.038C381.1 -399.554 468.031 -443.17 564.051 -443.17ZM809.619 -328.525C746.771 -398.91 659.95 -442.444 564.051 -442.444C468.151 -442.444 381.33 -398.909 318.482 -328.525C255.638 -258.14 216.766 -160.904 216.766 -53.5005C216.766 53.9026 255.638 151.139 318.482 221.524C381.329 291.909 468.151 335.443 564.051 335.443C659.95 335.443 746.771 291.908 809.619 221.524C872.467 151.139 911.334 53.9026 911.334 -53.5005C911.334 -160.904 872.467 -258.14 809.619 -328.525Z" fill="black" fill-opacity="0.06"/>
<path fill-rule="evenodd" clip-rule="evenodd" d="M564.051 -457.484C663.658 -457.484 753.828 -412.266 819.103 -339.16C884.378 -266.053 924.757 -165.057 924.757 -53.5013C924.757 58.0546 884.378 159.052 819.103 232.158C753.828 305.264 663.658 350.482 564.051 350.482C464.444 350.482 374.268 305.264 308.994 232.158C243.72 159.051 203.346 58.0546 203.346 -53.5013C203.346 -165.057 243.72 -266.054 308.994 -339.16C374.268 -412.266 464.445 -457.484 564.051 -457.484ZM818.785 -338.632C753.589 -411.604 663.53 -456.74 564.051 -456.74C464.571 -456.74 374.509 -411.605 309.317 -338.632C244.126 -265.661 203.804 -164.85 203.804 -53.5004C203.804 57.8494 244.126 158.661 309.317 231.631C374.509 304.603 464.571 349.739 564.051 349.739C663.53 349.739 753.589 304.604 818.785 231.631C883.972 158.661 924.295 57.8494 924.295 -53.5004C924.295 -164.85 883.972 -265.661 818.785 -338.632Z" fill="black" fill-opacity="0.06"/>
<path fill-rule="evenodd" clip-rule="evenodd" d="M564.051 -471.798C667.238 -471.798 760.663 -424.978 828.285 -349.282C895.914 -273.585 937.742 -169.01 937.742 -53.5012C937.742 62.0075 895.914 166.583 828.285 242.28C760.663 317.976 667.238 364.796 564.051 364.796C460.859 364.796 367.436 317.976 299.813 242.28C232.188 166.583 190.361 62.0075 190.361 -53.5012C190.361 -169.01 232.189 -273.585 299.813 -349.282C367.437 -424.978 460.859 -471.798 564.051 -471.798ZM827.95 -348.741C760.408 -424.299 667.111 -471.034 564.051 -471.034C460.992 -471.034 367.689 -424.3 300.151 -348.741C232.615 -273.182 190.841 -168.799 190.841 -53.5004C190.841 61.797 232.615 166.181 300.151 241.74C367.689 317.298 460.992 364.034 564.051 364.034C667.111 364.034 760.408 317.299 827.95 241.74C895.485 166.181 937.256 61.7979 937.256 -53.5004C937.256 -168.798 895.485 -273.182 827.95 -348.741Z" fill="black" fill-opacity="0.06"/>
<path fill-rule="evenodd" clip-rule="evenodd" d="M564.051 -486.113C670.826 -486.113 767.497 -437.691 837.466 -359.404C907.443 -281.116 950.727 -172.962 950.727 -53.5003C950.727 65.9621 907.443 174.115 837.466 252.403C767.497 330.689 670.826 379.112 564.051 379.112C457.274 379.112 360.605 330.69 290.63 252.403C220.657 174.115 177.376 65.9612 177.376 -53.5003C177.376 -172.963 220.657 -281.116 290.63 -359.404C360.605 -437.69 457.274 -486.113 564.051 -486.113ZM837.116 -358.849C767.227 -436.994 670.691 -485.329 564.051 -485.329C457.413 -485.329 360.869 -436.995 290.986 -358.849C221.104 -280.704 177.881 -172.746 177.881 -53.5003C177.881 65.7455 221.105 173.703 290.986 251.848C360.87 329.993 457.413 378.328 564.051 378.328C670.691 378.328 767.235 329.994 837.116 251.848C906.998 173.704 950.217 65.7455 950.217 -53.5003C950.217 -172.746 906.998 -280.704 837.116 -358.849Z" fill="black" fill-opacity="0.06"/>
<path fill-rule="evenodd" clip-rule="evenodd" d="M564.05 -500.427C674.415 -500.427 774.324 -450.403 846.648 -369.525C918.972 -288.646 963.711 -176.915 963.711 -53.5002C963.711 69.915 918.972 181.646 846.648 262.524C774.324 343.403 674.415 393.427 564.05 393.427C453.688 393.427 353.773 343.403 281.449 262.524C209.125 181.646 164.391 69.915 164.391 -53.5002C164.391 -176.915 209.125 -288.647 281.449 -369.525C353.773 -450.403 453.688 -500.427 564.05 -500.427ZM846.282 -368.956C774.053 -449.689 674.263 -499.623 564.05 -499.623C453.834 -499.623 354.05 -449.689 281.82 -368.956C209.592 -288.224 164.918 -176.693 164.918 -53.5002C164.918 69.6923 209.592 181.224 281.82 261.956C354.05 342.689 453.834 392.623 564.05 392.623C674.263 392.623 774.053 342.689 846.282 261.956C918.511 181.224 963.178 69.6923 963.178 -53.5002C963.178 -176.693 918.511 -288.224 846.282 -368.956Z" fill="black" fill-opacity="0.06"/>
<path fill-rule="evenodd" clip-rule="evenodd" d="M564.051 -514.742C677.995 -514.742 781.159 -463.115 855.83 -379.647C930.509 -296.178 976.697 -180.867 976.697 -53.5002C976.697 73.867 930.509 189.179 855.83 272.646C781.159 356.115 677.995 407.738 564.051 407.738C450.102 407.738 346.941 356.115 272.267 272.646C197.594 189.178 151.406 73.867 151.406 -53.5002C151.406 -180.867 197.594 -296.179 272.267 -379.647C346.941 -463.115 450.102 -514.742 564.051 -514.742ZM855.448 -379.064C780.872 -462.384 677.844 -513.918 564.051 -513.918C450.254 -513.918 347.23 -462.384 272.655 -379.064C198.081 -295.745 151.956 -180.64 151.956 -53.5002C151.956 73.639 198.081 188.745 272.655 272.065C347.23 355.384 450.254 406.914 564.051 406.914C677.844 406.914 780.872 355.384 855.448 272.065C930.016 188.745 976.148 73.6398 976.148 -53.5002C976.148 -180.639 930.016 -295.745 855.448 -379.064Z" fill="black" fill-opacity="0.06"/>
<path fill-rule="evenodd" clip-rule="evenodd" d="M564.051 -529.056C681.583 -529.056 787.993 -475.827 865.012 -389.769C942.038 -303.71 989.681 -184.82 989.681 -53.5002C989.681 77.8198 942.038 196.71 865.012 282.768C787.993 368.827 681.583 422.052 564.051 422.052C446.517 422.052 340.11 368.827 263.086 282.768C186.063 196.71 138.422 77.8198 138.422 -53.5002C138.422 -184.82 186.063 -303.71 263.086 -389.769C340.109 -475.827 446.517 -529.056 564.051 -529.056ZM864.614 -389.172C787.691 -475.078 681.424 -528.213 564.051 -528.213C446.674 -528.213 340.41 -475.078 263.489 -389.172C186.57 -303.267 138.993 -184.588 138.993 -53.5002C138.993 77.5865 186.569 196.267 263.489 282.172C340.41 368.078 446.674 421.21 564.051 421.21C681.424 421.21 787.691 368.078 864.614 282.172C941.529 196.267 989.109 77.5874 989.109 -53.5002C989.109 -184.587 941.529 -303.267 864.614 -389.172Z" fill="black" fill-opacity="0.06"/>
<path fill-rule="evenodd" clip-rule="evenodd" d="M564.051 -543.37C685.172 -543.37 794.82 -488.539 874.193 -399.89C953.567 -311.241 1002.67 -188.773 1002.67 -53.5001C1002.67 81.7728 953.567 204.241 874.193 292.889C794.82 381.539 685.172 436.374 564.051 436.374C442.931 436.374 333.278 381.539 253.904 292.889C174.53 204.241 125.436 81.7719 125.436 -53.5001C125.436 -188.774 174.531 -311.241 253.904 -399.89C333.278 -488.539 442.931 -543.37 564.051 -543.37ZM873.78 -399.28C794.509 -487.772 685.005 -542.508 564.051 -542.508C443.096 -542.508 333.59 -487.772 254.324 -399.28C175.058 -310.788 126.031 -188.535 126.031 -53.5009C126.031 81.5342 175.058 203.786 254.324 292.278C333.59 380.771 443.096 435.506 564.051 435.506C685.005 435.506 794.509 380.771 873.78 292.278C953.042 203.786 1002.07 81.5334 1002.07 -53.5009C1002.07 -188.536 953.042 -310.788 873.78 -399.28Z" fill="black" fill-opacity="0.06"/>
<path fill-rule="evenodd" clip-rule="evenodd" d="M564.051 -557.685C688.752 -557.685 801.654 -501.251 883.375 -410.012C965.104 -318.773 1015.65 -192.726 1015.65 -53.5002C1015.65 85.7255 965.104 211.773 883.375 303.011C801.654 394.251 688.752 450.687 564.051 450.687C439.346 450.687 326.445 394.251 244.722 303.011C162.999 211.773 112.451 85.7255 112.451 -53.5002C112.451 -192.726 162.999 -318.773 244.722 -410.012C326.445 -501.251 439.345 -557.685 564.051 -557.685ZM882.945 -409.388C801.328 -500.467 688.585 -556.802 564.051 -556.802C439.515 -556.802 326.771 -500.467 245.158 -409.388C163.547 -318.308 113.069 -192.482 113.069 -53.501C113.069 85.4808 163.547 211.307 245.158 302.386C326.771 393.466 439.515 449.802 564.051 449.802C688.585 449.802 801.328 393.466 882.945 302.386C964.555 211.307 1015.03 85.48 1015.03 -53.501C1015.03 -192.483 964.555 -318.308 882.945 -409.388Z" fill="black" fill-opacity="0.06"/>
<path fill-rule="evenodd" clip-rule="evenodd" d="M564.051 -571.998C692.341 -571.998 808.489 -513.963 892.557 -420.134C976.633 -326.304 1028.64 -196.679 1028.64 -53.5001C1028.64 89.6794 976.633 219.303 892.557 313.134C808.489 406.967 692.341 465.001 564.051 465.001C435.76 465.001 319.613 406.967 235.541 313.134C151.468 219.304 99.4673 89.6794 99.4673 -53.5001C99.4673 -196.679 151.468 -326.303 235.541 -420.134C319.614 -513.963 435.76 -571.998 564.051 -571.998ZM892.111 -419.496C808.155 -513.163 692.165 -571.097 564.051 -571.097C435.936 -571.097 319.95 -513.162 235.992 -419.496C152.036 -325.83 100.106 -196.43 100.106 -53.5009C100.106 89.4285 152.036 218.829 235.992 312.495C319.95 406.16 435.936 464.098 564.051 464.098C692.165 464.098 808.155 406.16 892.111 312.495C976.068 218.828 1027.99 89.4285 1027.99 -53.5009C1027.99 -196.43 976.068 -325.831 892.111 -419.496Z" fill="black" fill-opacity="0.06"/>
<path fill-rule="evenodd" clip-rule="evenodd" d="M564.051 -586.313C695.929 -586.313 815.316 -526.675 901.739 -430.256C988.162 -333.835 1041.62 -200.631 1041.62 -53.4999C1041.62 93.6315 988.162 226.835 901.739 323.256C815.316 419.675 695.929 479.314 564.051 479.314C432.174 479.314 312.782 419.675 226.359 323.256C139.937 226.835 86.4824 93.6315 86.4824 -53.4999C86.4824 -200.631 139.937 -333.835 226.359 -430.256C312.782 -526.675 432.175 -586.313 564.051 -586.313ZM901.277 -429.603C814.973 -525.857 695.746 -585.39 564.051 -585.39C432.357 -585.39 313.129 -525.857 226.827 -429.603C140.524 -333.349 87.1444 -200.376 87.1444 -53.4999C87.1444 93.3762 140.524 226.351 226.827 322.604C313.129 418.86 432.357 478.393 564.051 478.393C695.746 478.393 814.973 418.86 901.277 322.604C987.573 226.35 1040.95 93.3762 1040.95 -53.4999C1040.95 -200.376 987.573 -333.35 901.277 -429.603Z" fill="black" fill-opacity="0.06"/>
<path fill-rule="evenodd" clip-rule="evenodd" d="M564.051 -600.627C699.509 -600.627 822.15 -539.387 910.921 -440.377C999.699 -341.367 1054.61 -204.586 1054.61 -53.5009C1054.61 97.5829 999.699 234.365 910.921 333.375C822.15 432.382 699.509 493.625 564.051 493.625C428.589 493.625 305.95 432.382 217.178 333.375C128.406 234.365 73.4976 97.5838 73.4976 -53.5009C73.4976 -204.585 128.405 -341.367 217.178 -440.377C305.95 -539.387 428.589 -600.627 564.051 -600.627ZM910.443 -439.711C821.792 -538.551 699.326 -599.685 564.051 -599.685C428.778 -599.685 306.31 -538.551 217.661 -439.711C129.014 -340.871 74.1818 -204.323 74.1818 -53.5009C74.1818 97.3224 129.014 233.869 217.661 332.709C306.309 431.548 428.777 492.687 564.051 492.687C699.318 492.687 821.792 431.548 910.443 332.709C999.086 233.869 1053.92 97.3215 1053.92 -53.5009C1053.92 -204.324 999.086 -340.871 910.443 -439.711Z" fill="black" fill-opacity="0.06"/>
<path fill-rule="evenodd" clip-rule="evenodd" d="M564.051 -614.941C703.098 -614.941 828.985 -552.099 920.102 -450.499C1011.23 -348.899 1067.59 -208.538 1067.59 -53.501C1067.59 101.536 1011.23 241.897 920.102 343.497C828.985 445.099 703.098 507.938 564.051 507.938C425.003 507.938 299.118 445.099 207.997 343.497C116.875 241.897 60.5134 101.536 60.5134 -53.501C60.5134 -208.538 116.874 -348.899 207.997 -450.499C299.118 -552.099 425.003 -614.941 564.051 -614.941ZM919.601 -449.819C828.611 -551.246 702.899 -613.98 564.051 -613.98C425.199 -613.98 299.49 -551.246 208.496 -449.819C117.502 -348.393 61.22 -208.272 61.22 -53.501C61.22 101.271 117.502 241.391 208.496 342.817C299.49 444.239 425.198 506.974 564.051 506.974C702.899 506.974 828.611 444.239 919.601 342.817C1010.6 241.391 1066.88 101.271 1066.88 -53.501C1066.88 -208.272 1010.6 -348.393 919.601 -449.819Z" fill="black" fill-opacity="0.06"/>
<path fill-rule="evenodd" clip-rule="evenodd" d="M564.051 -629.255C706.686 -629.255 835.812 -564.812 929.284 -460.621C1022.76 -356.431 1080.58 -212.49 1080.58 -53.5009C1080.58 105.489 1022.76 249.428 929.284 353.62C835.812 457.807 706.686 522.252 564.051 522.252C421.418 522.252 292.287 457.807 198.814 353.62C105.342 249.429 47.5276 105.489 47.5276 -53.5009C47.5276 -212.49 105.342 -356.43 198.814 -460.621C292.287 -564.812 421.418 -629.255 564.051 -629.255ZM928.767 -459.927C835.43 -563.94 706.479 -628.275 564.051 -628.275C421.619 -628.275 292.67 -563.94 199.33 -459.927C105.991 -355.914 48.258 -212.219 48.258 -53.5009C48.258 105.218 105.991 248.913 199.33 352.926C292.671 456.939 421.619 521.27 564.051 521.27C706.479 521.27 835.43 456.939 928.767 352.926C1022.11 248.913 1079.84 105.218 1079.84 -53.5009C1079.84 -212.219 1022.11 -355.914 928.767 -459.927Z" fill="black" fill-opacity="0.06"/>
<path fill-rule="evenodd" clip-rule="evenodd" d="M564.051 -643.571C710.267 -643.571 842.646 -577.523 938.466 -470.743C1034.29 -363.962 1093.56 -216.443 1093.56 -53.5009C1093.56 109.441 1034.29 256.959 938.466 363.741C842.646 470.524 710.267 536.565 564.051 536.565C417.831 536.565 285.455 470.524 189.633 363.741C93.8112 256.96 34.5427 109.442 34.5427 -53.5009C34.5427 -216.442 93.8112 -363.961 189.633 -470.743C285.455 -577.523 417.831 -643.571 564.051 -643.571ZM937.933 -470.035C842.248 -576.635 710.06 -642.57 564.051 -642.57C418.04 -642.57 285.851 -576.634 190.165 -470.035C94.4795 -363.434 35.2962 -216.166 35.2962 -53.5009C35.2962 109.164 94.4795 256.433 190.165 363.034C285.851 469.63 418.04 535.566 564.051 535.566C710.06 535.566 842.248 469.63 937.933 363.034C1033.63 256.432 1092.81 109.164 1092.81 -53.5009C1092.81 -216.166 1033.63 -363.435 937.933 -470.035Z" fill="black" fill-opacity="0.06"/>
<path fill-rule="evenodd" clip-rule="evenodd" d="M564.051 -657.885C713.855 -657.885 849.481 -590.236 947.648 -480.865C1045.82 -371.492 1106.55 -220.397 1106.55 -53.501C1106.55 113.394 1045.82 264.49 947.648 373.863C849.481 483.232 713.855 550.887 564.051 550.887C414.246 550.887 278.623 483.232 180.451 373.863C82.2799 264.49 21.5586 113.395 21.5586 -53.501C21.5586 -220.396 82.2799 -371.492 180.451 -480.865C278.623 -590.237 414.246 -657.885 564.051 -657.885ZM947.099 -480.143C849.067 -589.33 713.64 -656.865 564.051 -656.865C414.461 -656.865 279.03 -589.33 180.999 -480.143C82.9681 -370.956 22.3343 -220.115 22.3343 -53.501C22.3343 113.113 82.9681 263.954 180.999 373.141C279.03 482.329 414.461 549.861 564.051 549.861C713.64 549.861 849.067 482.329 947.099 373.141C1045.13 263.954 1105.77 113.113 1105.77 -53.501C1105.77 -220.115 1045.13 -370.956 947.099 -480.143Z" fill="black" fill-opacity="0.06"/>
<path fill-rule="evenodd" clip-rule="evenodd" d="M564.051 -672.199C717.443 -672.199 856.307 -602.948 956.829 -490.987C1057.35 -379.024 1119.53 -224.349 1119.53 -53.5016C1119.53 117.347 1057.35 272.022 956.829 383.984C856.307 495.95 717.443 565.192 564.051 565.192C410.66 565.192 271.791 495.941 171.27 383.984C70.7484 272.022 8.57349 117.346 8.57349 -53.5016C8.57349 -224.35 70.7484 -379.025 171.27 -490.987C271.791 -602.949 410.66 -672.199 564.051 -672.199ZM956.264 -490.251C855.893 -602.025 717.22 -671.16 564.051 -671.16C410.882 -671.16 272.21 -602.025 171.834 -490.251C71.4574 -378.477 9.37231 -224.061 9.37231 -53.5008C9.37231 117.06 71.4574 271.475 171.834 383.25C272.21 495.02 410.882 564.157 564.051 564.157C717.22 564.157 855.893 495.02 956.264 383.25C1056.64 271.475 1118.73 117.06 1118.73 -53.5008C1118.73 -224.061 1056.64 -378.477 956.264 -490.251Z" fill="black" fill-opacity="0.06"/>
<path fill-rule="evenodd" clip-rule="evenodd" d="M564.051 -686.513C721.024 -686.513 863.142 -615.66 966.011 -501.108C1068.88 -386.555 1132.51 -228.301 1132.51 -53.5007C1132.51 121.3 1068.88 279.554 966.011 394.107C863.142 508.658 721.024 579.514 564.051 579.514C407.074 579.514 264.959 508.658 162.088 394.107C59.2164 279.554 -4.41138 121.3 -4.41138 -53.5007C-4.41138 -228.301 59.2164 -386.555 162.088 -501.108C264.959 -615.66 407.074 -686.513 564.051 -686.513ZM965.43 -500.359C862.712 -614.719 720.801 -685.454 564.051 -685.454C407.301 -685.454 265.391 -614.719 162.668 -500.359C59.9461 -385.997 -3.59026 -228.009 -3.59026 -53.5007C-3.59026 121.007 59.9461 278.996 162.668 393.358C265.391 507.72 407.301 578.453 564.051 578.453C720.801 578.453 862.712 507.72 965.43 393.358C1068.16 278.996 1131.69 121.007 1131.69 -53.5007C1131.69 -228.009 1068.16 -385.997 965.43 -500.359Z" fill="black" fill-opacity="0.06"/>
<path fill-rule="evenodd" clip-rule="evenodd" d="M564.051 -700.828C724.612 -700.828 869.977 -628.372 975.193 -511.229C1080.42 -394.086 1145.49 -232.254 1145.49 -53.5007C1145.49 125.253 1080.42 287.085 975.193 404.228C869.977 521.367 724.612 593.828 564.051 593.828C403.489 593.828 258.127 521.375 152.907 404.228C47.6859 287.085 -17.3955 125.253 -17.3955 -53.5007C-17.3955 -232.254 47.6859 -394.086 152.907 -511.229C258.127 -628.372 403.489 -700.828 564.051 -700.828ZM974.596 -510.467C869.531 -627.414 724.381 -699.749 564.051 -699.749C403.722 -699.749 258.571 -627.415 153.502 -510.467C48.4338 -393.519 -16.5521 -231.957 -16.5521 -53.5007C-16.5521 124.955 48.4346 286.518 153.502 403.465C258.571 520.411 403.722 592.749 564.051 592.749C724.381 592.749 869.531 520.411 974.596 403.465C1079.67 286.518 1144.65 124.956 1144.65 -53.5007C1144.65 -231.956 1079.67 -393.519 974.596 -510.467Z" fill="black" fill-opacity="0.06"/>
<path fill-rule="evenodd" clip-rule="evenodd" d="M564.051 -715.141C728.2 -715.141 876.803 -641.084 984.375 -521.351C1091.95 -401.618 1158.48 -236.206 1158.48 -53.5007C1158.48 129.205 1091.95 294.617 984.375 414.35C876.803 534.084 728.192 608.141 564.051 608.141C399.903 608.141 251.295 534.084 143.725 414.35C36.1547 294.617 -30.3796 129.205 -30.3796 -53.5007C-30.3796 -236.206 36.1547 -401.618 143.725 -521.351C251.296 -641.083 399.904 -715.141 564.051 -715.141ZM983.762 -520.574C876.35 -640.109 727.954 -714.043 564.051 -714.043C400.143 -714.043 251.751 -640.109 144.337 -520.574C36.9225 -401.039 -29.514 -235.904 -29.514 -53.5007C-29.514 128.902 36.9233 294.038 144.337 413.57C251.751 533.11 400.143 607.045 564.051 607.045C727.954 607.045 876.35 533.11 983.762 413.57C1091.17 294.038 1157.62 128.902 1157.62 -53.5007C1157.62 -235.904 1091.17 -401.039 983.762 -520.574Z" fill="black" fill-opacity="0.06"/>
<path fill-rule="evenodd" clip-rule="evenodd" d="M564.051 -729.456C731.781 -729.456 883.638 -653.797 993.556 -531.473C1103.47 -409.149 1171.46 -240.159 1171.46 -53.5006C1171.46 133.159 1103.47 302.148 993.556 424.472C883.638 546.792 731.781 622.454 564.051 622.454C396.317 622.454 244.463 546.792 134.543 424.472C24.6224 302.147 -43.3655 133.158 -43.3655 -53.5006C-43.3655 -240.16 24.6224 -409.15 134.543 -531.473C244.463 -653.797 396.317 -729.456 564.051 -729.456ZM992.928 -530.683C883.168 -652.804 731.534 -728.338 564.051 -728.338C396.564 -728.338 244.93 -652.804 135.17 -530.683C25.4117 -408.561 -42.4768 -239.85 -42.4768 -53.5006C-42.4768 132.849 25.4117 301.56 135.17 423.682C244.93 545.801 396.563 621.341 564.051 621.341C731.534 621.341 883.168 545.801 992.928 423.682C1102.69 301.56 1170.58 132.849 1170.58 -53.5006C1170.58 -239.85 1102.69 -408.561 992.928 -530.683Z" fill="black" fill-opacity="0.06"/>
<path fill-rule="evenodd" clip-rule="evenodd" d="M564.051 -743.771C735.369 -743.771 890.464 -666.509 1002.74 -541.594C1115.01 -416.68 1184.45 -244.112 1184.45 -53.5005C1184.45 137.112 1115.01 309.679 1002.74 434.593C890.464 559.509 735.369 636.768 564.051 636.768C392.732 636.768 237.632 559.509 125.362 434.593C13.0912 309.679 -56.3496 137.112 -56.3496 -53.5005C-56.3496 -244.112 13.0912 -416.68 125.362 -541.594C237.632 -666.509 392.732 -743.771 564.051 -743.771ZM1002.09 -540.79C889.987 -665.498 735.115 -742.633 564.051 -742.633C392.984 -742.633 238.112 -665.498 126.005 -540.79C13.9004 -416.082 -55.4386 -243.798 -55.4386 -53.5005C-55.4386 136.797 13.9004 309.081 126.005 433.786C238.111 558.501 392.984 635.636 564.051 635.636C735.115 635.636 889.987 558.501 1002.09 433.786C1114.2 309.081 1183.54 136.797 1183.54 -53.5005C1183.54 -243.798 1114.2 -416.082 1002.09 -540.79Z" fill="black" fill-opacity="0.06"/>
<path fill-rule="evenodd" clip-rule="evenodd" d="M564.051 -758.086C738.95 -758.086 897.299 -679.222 1011.92 -551.717C1126.54 -424.213 1197.43 -248.066 1197.43 -53.5015C1197.43 141.063 1126.54 317.21 1011.92 444.714C897.299 572.218 738.95 651.081 564.051 651.081C389.147 651.081 230.8 572.218 116.179 444.714C1.56075 317.21 -69.3345 141.063 -69.3345 -53.5015C-69.3345 -248.066 1.56075 -424.213 116.179 -551.717C230.8 -679.222 389.147 -758.086 564.051 -758.086ZM1011.26 -550.899C896.806 -678.195 738.695 -756.929 564.051 -756.929C389.404 -756.929 231.292 -678.195 116.84 -550.899C2.38983 -423.604 -68.4012 -247.746 -68.4012 -53.5015C-68.4012 140.743 2.38983 316.601 116.84 443.898C231.291 571.192 389.404 649.923 564.051 649.923C738.695 649.923 896.806 571.192 1011.26 443.898C1125.71 316.601 1196.5 140.743 1196.5 -53.5015C1196.5 -247.746 1125.71 -423.604 1011.26 -550.899Z" fill="black" fill-opacity="0.06"/>
<path fill-rule="evenodd" clip-rule="evenodd" d="M564.051 -772.4C742.538 -772.4 904.134 -691.933 1021.1 -561.84C1138.07 -431.744 1210.42 -252.018 1210.42 -53.5016C1210.42 145.016 1138.07 324.742 1021.1 454.835C904.134 584.935 742.538 665.394 564.051 665.394C385.561 665.394 223.968 584.935 106.998 454.835C-9.97057 324.742 -82.3195 145.016 -82.3195 -53.5016C-82.3195 -252.018 -9.97057 -431.744 106.998 -561.84C223.968 -691.933 385.561 -772.4 564.051 -772.4ZM1020.43 -561.007C903.632 -690.889 742.275 -771.223 564.051 -771.223C385.825 -771.223 224.47 -690.889 107.674 -561.007C-9.12242 -431.126 -81.3631 -251.693 -81.3631 -53.5016C-81.3631 144.691 -9.12242 324.123 107.674 454.001C224.471 583.882 385.825 664.219 564.051 664.219C742.275 664.219 903.632 583.882 1020.43 454.001C1137.23 324.123 1209.46 144.691 1209.46 -53.5016C1209.46 -251.693 1137.23 -431.125 1020.43 -561.007Z" fill="black" fill-opacity="0.06"/>
<path fill-rule="evenodd" clip-rule="evenodd" d="M564.051 -786.714C746.126 -786.714 910.968 -704.645 1030.28 -571.961C1149.61 -439.275 1223.4 -255.972 1223.4 -53.5013C1223.4 148.969 1149.61 332.273 1030.28 464.956C910.968 597.643 746.126 679.708 564.051 679.708C381.975 679.708 217.136 597.643 97.8163 464.956C-21.5035 332.273 -95.3044 148.969 -95.3044 -53.5013C-95.3044 -255.972 -21.5027 -439.275 97.8163 -571.961C217.136 -704.645 381.975 -786.714 564.051 -786.714ZM1029.59 -571.115C910.451 -703.583 745.856 -785.518 564.051 -785.518C382.246 -785.518 217.65 -703.583 98.5086 -571.115C-20.6331 -438.647 -94.3258 -255.641 -94.3258 -53.5023C-94.3258 148.638 -20.6331 331.643 98.5086 464.114C217.651 596.582 382.246 678.515 564.051 678.515C745.856 678.515 910.451 596.582 1029.59 464.114C1148.73 331.643 1222.42 148.637 1222.42 -53.5023C1222.42 -255.641 1148.73 -438.647 1029.59 -571.115Z" fill="black" fill-opacity="0.06"/>
<path fill-rule="evenodd" clip-rule="evenodd" d="M564.051 -801.029C749.707 -801.029 917.795 -717.356 1039.47 -582.082C1161.14 -446.806 1236.39 -259.923 1236.39 -53.5008C1236.39 152.923 1161.14 339.805 1039.47 475.078C917.795 610.352 749.707 694.03 564.051 694.03C378.39 694.03 210.305 610.352 88.6347 475.078C-33.0347 339.805 -108.289 152.923 -108.289 -53.5008C-108.289 -259.923 -33.0339 -446.806 88.6347 -582.082C210.305 -717.357 378.39 -801.029 564.051 -801.029ZM1038.76 -581.222C917.27 -716.278 749.436 -799.812 564.051 -799.812C378.668 -799.812 210.832 -716.277 89.3436 -581.222C-32.1444 -446.166 -107.288 -259.588 -107.288 -53.5017C-107.288 152.585 -32.1444 339.164 89.3436 474.218C210.832 609.273 378.668 692.811 564.051 692.811C749.436 692.811 917.27 609.273 1038.76 474.218C1160.24 339.164 1235.39 152.585 1235.39 -53.5017C1235.39 -259.588 1160.24 -446.167 1038.76 -581.222Z" fill="black" fill-opacity="0.06"/>
<path fill-rule="evenodd" clip-rule="evenodd" d="M564.051 -815.342C753.295 -815.342 924.63 -730.069 1048.65 -592.204C1172.66 -454.338 1249.37 -263.876 1249.37 -53.501C1249.37 156.874 1172.66 347.336 1048.65 485.198C924.63 623.069 753.295 708.344 564.051 708.344C374.805 708.344 203.473 623.069 79.4529 485.198C-44.5653 347.336 -121.274 156.874 -121.274 -53.501C-121.274 -263.876 -44.5653 -454.338 79.4529 -592.204C203.473 -730.069 374.804 -815.342 564.051 -815.342ZM1047.92 -591.33C924.088 -728.972 753.017 -814.106 564.051 -814.106C375.087 -814.106 204.011 -728.971 80.1777 -591.33C-43.6559 -453.688 -120.25 -263.534 -120.25 -53.501C-120.25 156.532 -43.6559 346.686 80.1777 484.33C204.011 621.973 375.088 707.107 564.051 707.107C753.017 707.107 924.088 621.973 1047.92 484.33C1171.76 346.686 1248.35 156.532 1248.35 -53.501C1248.35 -263.534 1171.76 -453.688 1047.92 -591.33Z" fill="black" fill-opacity="0.06"/>
<path fill-rule="evenodd" clip-rule="evenodd" d="M564.051 -829.657C756.883 -829.657 931.456 -742.782 1057.83 -602.326C1184.2 -461.869 1262.36 -267.829 1262.36 -53.5009C1262.36 160.827 1184.2 354.867 1057.83 495.328C931.456 635.777 756.883 722.657 564.051 722.657C371.218 722.657 196.64 635.777 70.2719 495.328C-56.0966 354.867 -134.259 160.828 -134.259 -53.5009C-134.259 -267.829 -56.0974 -461.869 70.2719 -602.326C196.64 -742.782 371.219 -829.657 564.051 -829.657ZM1057.09 -601.437C930.907 -741.666 756.589 -828.401 564.051 -828.401C371.508 -828.401 197.191 -741.666 71.0119 -601.437C-55.1664 -461.208 -133.211 -267.481 -133.211 -53.5009C-133.211 160.481 -55.1664 354.207 71.0119 494.434C197.191 634.664 371.508 721.403 564.051 721.403C756.589 721.403 930.907 634.664 1057.09 494.434C1183.27 354.207 1261.31 160.48 1261.31 -53.5009C1261.31 -267.482 1183.27 -461.208 1057.09 -601.437Z" fill="black" fill-opacity="0.06"/>
<path fill-rule="evenodd" clip-rule="evenodd" d="M564.051 -843.971C760.472 -843.971 938.291 -755.495 1067.01 -612.448C1195.73 -469.401 1275.34 -271.783 1275.34 -53.5009C1275.34 164.781 1195.73 362.4 1067.01 505.449C938.291 648.495 760.464 736.97 564.051 736.97C367.633 736.97 189.808 648.495 61.0901 505.449C-67.6279 362.4 -147.243 164.781 -147.243 -53.5009C-147.243 -271.783 -67.6287 -469.401 61.0901 -612.448C189.808 -755.495 367.633 -843.971 564.051 -843.971ZM1066.25 -611.546C937.726 -754.362 760.169 -842.696 564.051 -842.696C367.929 -842.696 190.371 -754.362 61.846 -611.546C-66.6787 -468.729 -146.174 -271.429 -146.174 -53.5009C-146.174 164.428 -66.6787 361.728 61.846 504.546C190.371 647.363 367.929 735.698 564.051 735.698C760.169 735.698 937.726 647.363 1066.25 504.546C1194.78 361.728 1274.28 164.428 1274.28 -53.5009C1274.28 -271.429 1194.78 -468.729 1066.25 -611.546Z" fill="black" fill-opacity="0.06"/>
<path fill-rule="evenodd" clip-rule="evenodd" d="M564.051 -858.286C764.052 -858.286 945.125 -768.207 1076.19 -622.57C1207.26 -476.932 1288.33 -275.736 1288.33 -53.5009C1288.33 168.734 1207.26 369.93 1076.19 515.571C945.125 661.203 764.052 751.284 564.051 751.284C364.048 751.284 182.977 661.203 51.9085 515.571C-79.1591 369.931 -160.228 168.734 -160.228 -53.5009C-160.228 -275.736 -79.1599 -476.932 51.9085 -622.57C182.977 -768.207 364.048 -858.286 564.051 -858.286ZM1075.42 -621.653C944.552 -767.056 763.75 -856.991 564.051 -856.991C364.349 -856.991 183.552 -767.057 52.6802 -621.653C-78.19 -476.251 -159.136 -275.377 -159.136 -53.5009C-159.136 168.375 -78.19 369.25 52.6802 514.65C183.552 660.054 364.349 749.986 564.051 749.986C763.75 749.986 944.552 660.054 1075.42 514.65C1206.29 369.25 1287.24 168.375 1287.24 -53.5009C1287.24 -275.377 1206.29 -476.251 1075.42 -621.653Z" fill="black" fill-opacity="0.06"/>
<path fill-rule="evenodd" clip-rule="evenodd" d="M564.051 -872.6C767.641 -872.6 951.952 -780.918 1085.37 -632.692C1218.8 -484.464 1301.31 -279.688 1301.31 -53.5016C1301.31 172.685 1218.8 377.461 1085.37 525.692C951.952 673.912 767.641 765.597 564.051 765.597C360.462 765.597 176.145 673.912 42.7267 525.692C-90.6912 377.461 -173.213 172.685 -173.213 -53.5016C-173.213 -279.688 -90.6912 -484.464 42.7267 -632.692C176.145 -780.918 360.462 -872.6 564.051 -872.6ZM1084.59 -631.761C951.371 -779.751 767.33 -871.286 564.051 -871.286C360.769 -871.286 176.732 -779.751 43.5152 -631.761C-89.7015 -483.771 -172.098 -279.323 -172.098 -53.5007C-172.098 172.322 -89.7015 376.77 43.5152 524.762C176.732 672.754 360.769 764.282 564.051 764.282C767.33 764.282 951.371 672.754 1084.59 524.762C1217.8 376.77 1300.2 172.322 1300.2 -53.5007C1300.2 -279.323 1217.8 -483.771 1084.59 -631.761Z" fill="black" fill-opacity="0.06"/>
<path fill-rule="evenodd" clip-rule="evenodd" d="M564.051 -886.915C771.221 -886.915 958.786 -793.63 1094.56 -642.813C1230.32 -491.994 1314.3 -283.64 1314.3 -53.5007C1314.3 176.639 1230.32 384.994 1094.56 535.813C958.786 686.629 771.229 779.911 564.051 779.911C356.876 779.911 169.313 686.629 33.5449 535.813C-102.223 384.993 -186.198 176.639 -186.198 -53.5007C-186.198 -283.64 -102.223 -491.995 33.5449 -642.813C169.313 -793.63 356.875 -886.915 564.051 -886.915ZM1093.75 -641.87C958.19 -792.445 770.911 -885.581 564.051 -885.581C357.19 -885.581 169.911 -792.445 34.3493 -641.87C-101.212 -491.292 -185.06 -283.271 -185.06 -53.5007C-185.06 176.271 -101.212 384.291 34.3493 534.866C169.911 685.445 357.19 778.578 564.051 778.578C770.911 778.578 958.19 685.445 1093.75 534.866C1229.31 384.291 1313.16 176.27 1313.16 -53.5007C1313.16 -283.272 1229.31 -491.292 1093.75 -641.87Z" fill="black" fill-opacity="0.06"/>
<path fill-rule="evenodd" clip-rule="evenodd" d="M564.051 -901.229C774.809 -901.229 965.621 -806.342 1103.74 -652.934C1241.85 -499.526 1327.28 -287.593 1327.28 -53.5021C1327.28 180.59 1241.85 392.522 1103.74 545.932C965.621 699.334 774.809 794.221 564.051 794.221C353.29 794.221 162.482 699.334 24.3632 545.932C-113.754 392.522 -199.183 180.59 -199.183 -53.5021C-199.183 -287.594 -113.754 -499.526 24.3632 -652.934C162.482 -806.342 353.29 -901.229 564.051 -901.229ZM1102.92 -651.978C965.009 -805.141 774.491 -899.875 564.051 -899.875C353.611 -899.875 163.092 -805.141 25.1835 -651.978C-112.723 -498.815 -198.023 -287.22 -198.023 -53.5021C-198.023 180.215 -112.723 391.811 25.1835 544.976C163.091 698.133 353.611 792.871 564.051 792.871C774.491 792.871 965.009 698.133 1102.92 544.976C1240.83 391.811 1326.12 180.215 1326.12 -53.5021C1326.12 -287.22 1240.83 -498.815 1102.92 -651.978Z" fill="black" fill-opacity="0.06"/>
<path fill-rule="evenodd" clip-rule="evenodd" d="M564.051 -915.543C778.398 -915.543 972.448 -819.054 1112.92 -663.056C1253.38 -507.057 1340.27 -291.546 1340.27 -53.5021C1340.27 184.543 1253.38 400.053 1112.92 556.053C972.448 712.052 778.398 808.535 564.051 808.535C349.704 808.535 155.65 712.052 15.1822 556.053C-125.286 400.053 -212.168 184.542 -212.168 -53.5021C-212.168 -291.547 -125.286 -507.057 15.1822 -663.056C155.65 -819.054 349.704 -915.543 564.051 -915.543ZM1112.08 -662.085C971.827 -817.835 778.071 -914.17 564.051 -914.17C350.032 -914.17 156.273 -817.835 16.0192 -662.085C-124.234 -506.336 -210.984 -291.167 -210.984 -53.5021C-210.984 184.163 -124.234 399.332 16.0192 555.079C156.273 710.833 350.032 807.167 564.051 807.167C778.071 807.167 971.827 710.833 1112.08 555.079C1252.33 399.332 1339.08 184.163 1339.08 -53.5021C1339.08 -291.167 1252.33 -506.336 1112.08 -662.085Z" fill="black" fill-opacity="0.06"/>
<path fill-rule="evenodd" clip-rule="evenodd" d="M564.051 -929.857C781.978 -929.857 979.282 -831.767 1122.1 -673.178C1264.92 -514.59 1353.25 -295.499 1353.25 -53.5021C1353.25 188.496 1264.92 407.588 1122.1 566.174C979.282 724.76 781.986 822.857 564.051 822.857C346.119 822.857 148.818 724.76 5.99962 566.174C-136.816 407.588 -225.153 188.496 -225.153 -53.5021C-225.153 -295.499 -136.816 -514.59 5.99962 -673.178C148.817 -831.767 346.118 -929.857 564.051 -929.857ZM1121.25 -672.193C978.646 -830.529 781.644 -928.465 564.051 -928.465C346.453 -928.465 149.452 -830.529 6.85257 -672.193C-135.746 -513.857 -223.946 -295.115 -223.946 -53.5021C-223.946 188.111 -135.745 406.851 6.85257 565.192C149.453 723.523 346.453 821.462 564.051 821.462C781.644 821.462 978.646 723.523 1121.25 565.192C1263.85 406.851 1352.05 188.111 1352.05 -53.5021C1352.05 -295.115 1263.85 -513.856 1121.25 -672.193Z" fill="black" fill-opacity="0.06"/>
<path fill-rule="evenodd" clip-rule="evenodd" d="M564.051 -944.173C785.566 -944.173 986.117 -844.48 1131.28 -683.301C1276.45 -522.121 1366.24 -299.452 1366.24 -53.5017C1366.24 192.449 1276.45 415.113 1131.28 576.296C986.117 737.478 785.566 837.171 564.051 837.171C342.534 837.171 141.986 737.478 -3.18129 576.296C-148.348 415.113 -238.137 192.449 -238.137 -53.5017C-238.137 -299.452 -148.348 -522.121 -3.18129 -683.301C141.986 -844.479 342.533 -944.173 564.051 -944.173ZM1130.42 -682.302C985.464 -843.225 785.224 -942.76 564.051 -942.76C342.873 -942.76 142.633 -843.225 -2.31325 -682.302C-147.257 -521.378 -236.908 -299.062 -236.908 -53.5017C-236.908 192.058 -147.256 414.377 -2.31325 575.296C142.633 736.224 342.874 835.759 564.051 835.759C785.224 835.759 985.464 736.224 1130.42 575.296C1275.36 414.377 1365.01 192.059 1365.01 -53.5017C1365.01 -299.061 1275.36 -521.378 1130.42 -682.302Z" fill="black" fill-opacity="0.06"/>
<path fill-rule="evenodd" clip-rule="evenodd" d="M564.051 -958.486C789.155 -958.486 992.944 -857.191 1140.46 -693.422C1287.98 -529.652 1379.22 -303.406 1379.22 -53.5021C1379.22 196.401 1287.98 422.647 1140.46 586.416C992.944 750.185 789.155 851.483 564.051 851.483C338.947 851.483 135.154 750.185 -12.3631 586.416C-159.88 422.647 -251.122 196.401 -251.122 -53.5021C-251.122 -303.406 -159.88 -529.652 -12.3631 -693.422C135.154 -857.191 338.948 -958.486 564.051 -958.486ZM1139.58 -692.41C992.291 -855.92 788.805 -957.055 564.051 -957.055C339.294 -957.055 135.812 -855.92 -11.4783 -692.41C-158.768 -528.899 -249.871 -303.009 -249.871 -53.5021C-249.871 196.005 -158.768 421.892 -11.4783 585.407C135.812 748.914 339.294 850.054 564.051 850.054C788.805 850.054 992.291 748.914 1139.58 585.407C1286.87 421.892 1377.97 196.005 1377.97 -53.5021C1377.97 -303.009 1286.87 -528.899 1139.58 -692.41Z" fill="black" fill-opacity="0.06"/>
<path fill-rule="evenodd" clip-rule="evenodd" d="M564.051 -972.801C792.735 -972.801 999.778 -869.903 1149.65 -703.543C1299.51 -537.183 1392.21 -307.357 1392.21 -53.5007C1392.21 200.356 1299.51 430.182 1149.65 596.539C999.778 762.905 792.735 865.799 564.051 865.799C335.362 865.799 128.322 762.905 -21.5441 596.539C-171.411 430.182 -264.106 200.356 -264.106 -53.5007C-264.106 -307.357 -171.411 -537.183 -21.5441 -703.543C128.322 -869.903 335.362 -972.801 564.051 -972.801ZM1148.75 -702.517C999.11 -868.615 792.385 -971.348 564.051 -971.348C335.714 -971.348 128.992 -868.615 -20.6442 -702.517C-170.28 -536.42 -262.833 -306.956 -262.833 -53.5007C-262.833 199.955 -170.28 429.419 -20.6442 595.513C128.992 761.616 335.714 864.344 564.051 864.344C792.385 864.344 999.11 761.616 1148.75 595.513C1298.38 429.419 1390.93 199.955 1390.93 -53.5007C1390.93 -306.956 1298.38 -536.42 1148.75 -702.517Z" fill="black" fill-opacity="0.06"/>
<path fill-rule="evenodd" clip-rule="evenodd" d="M564.051 -987.115C796.323 -987.115 1006.61 -882.615 1158.83 -713.666C1311.04 -544.715 1405.19 -311.31 1405.19 -53.5011C1405.19 204.307 1311.04 437.714 1158.83 606.658C1006.61 775.611 796.323 880.11 564.051 880.11C331.777 880.11 121.49 775.611 -30.7258 606.658C-182.942 437.714 -277.091 204.307 -277.091 -53.5011C-277.091 -311.31 -182.942 -544.715 -30.7258 -713.666C121.49 -882.615 331.777 -987.115 564.051 -987.115ZM1157.91 -712.625C1005.93 -881.309 795.965 -985.643 564.051 -985.643C332.135 -985.643 122.172 -881.309 -29.81 -712.625C-181.791 -543.941 -275.795 -310.904 -275.795 -53.5011C-275.795 203.9 -181.791 436.934 -29.81 605.623C122.172 774.304 332.135 878.637 564.051 878.637C795.965 878.637 1005.93 774.304 1157.91 605.623C1309.89 436.934 1403.89 203.901 1403.89 -53.5011C1403.89 -310.903 1309.89 -543.94 1157.91 -712.625Z" fill="black" fill-opacity="0.06"/>
<path fill-rule="evenodd" clip-rule="evenodd" d="M564.051 -1001.43C799.912 -1001.43 1013.44 -895.328 1168.01 -723.786C1322.57 -552.246 1418.18 -315.262 1418.18 -53.5008C1418.18 208.26 1322.57 445.241 1168.01 616.781C1013.44 788.33 799.912 894.426 564.051 894.426C328.192 894.426 114.659 788.33 -39.9076 616.781C-194.473 445.241 -290.076 208.26 -290.076 -53.5008C-290.076 -315.262 -194.473 -552.246 -39.9076 -723.786C114.659 -895.328 328.192 -1001.43 564.051 -1001.43ZM1167.08 -722.733C1012.75 -894.003 799.546 -999.938 564.051 -999.938C328.555 -999.938 115.352 -894.003 -38.9751 -722.733C-193.302 -551.462 -288.757 -314.851 -288.757 -53.5008C-288.757 207.848 -193.302 444.46 -38.9751 615.729C115.352 787.006 328.555 892.935 564.051 892.935C799.546 892.935 1012.75 787.006 1167.08 615.729C1321.4 444.46 1416.86 207.849 1416.86 -53.5008C1416.86 -314.85 1321.4 -551.461 1167.08 -722.733Z" fill="black" fill-opacity="0.06"/>
<path fill-rule="evenodd" clip-rule="evenodd" d="M564.051 -1015.74C803.492 -1015.74 1020.27 -908.04 1177.19 -733.909C1334.11 -559.779 1431.16 -319.217 1431.16 -53.5021C1431.16 212.212 1334.11 452.773 1177.19 626.909C1020.27 801.036 803.492 908.737 564.051 908.737C324.606 908.737 107.826 801.036 -49.0893 626.909C-206.005 452.773 -303.061 212.213 -303.061 -53.5021C-303.061 -319.216 -206.005 -559.778 -49.0893 -733.909C107.826 -908.04 324.605 -1015.74 564.051 -1015.74ZM1176.24 -732.842C1019.57 -906.699 803.126 -1014.23 564.051 -1014.23C324.976 -1014.23 108.532 -906.698 -48.1409 -732.842C-204.814 -558.984 -301.72 -318.799 -301.72 -53.5021C-301.72 211.795 -204.814 451.984 -48.1409 625.839C108.532 799.694 324.976 907.228 564.051 907.228C803.126 907.228 1019.57 799.694 1176.24 625.839C1332.92 451.984 1429.82 211.795 1429.82 -53.5021C1429.82 -318.799 1332.92 -558.984 1176.24 -732.842Z" fill="black" fill-opacity="0.06"/>
<path fill-rule="evenodd" clip-rule="evenodd" d="M564.05 -1030.06C807.081 -1030.06 1027.11 -920.75 1186.37 -744.029C1345.64 -567.308 1444.15 -323.168 1444.15 -53.4998C1444.15 216.168 1345.64 460.31 1186.37 637.033C1027.11 813.748 807.081 923.054 564.05 923.054C321.02 923.054 100.995 813.748 -58.2711 637.033C-217.537 460.31 -316.046 216.168 -316.046 -53.4998C-316.046 -323.168 -217.536 -567.308 -58.2711 -744.029C100.995 -920.751 321.02 -1030.06 564.05 -1030.06ZM1185.41 -742.948C1026.38 -919.393 806.707 -1028.53 564.05 -1028.53C321.397 -1028.53 101.713 -919.393 -57.3068 -742.948C-216.325 -566.502 -314.682 -322.744 -314.682 -53.5006C-314.682 215.744 -216.325 459.503 -57.3068 635.946C101.713 812.389 321.397 921.527 564.05 921.527C806.707 921.527 1026.38 812.389 1185.41 635.946C1344.43 459.503 1442.79 215.743 1442.79 -53.5006C1442.79 -322.745 1344.43 -566.503 1185.41 -742.948Z" fill="black" fill-opacity="0.06"/>
<path fill-rule="evenodd" clip-rule="evenodd" d="M564.051 -1044.37C810.669 -1044.37 1033.94 -933.463 1195.55 -754.152C1357.17 -574.839 1457.13 -327.121 1457.13 -53.5007C1457.13 220.12 1357.17 467.833 1195.55 647.153C1033.94 826.463 810.669 937.374 564.051 937.374C317.435 937.374 94.1628 826.463 -67.4528 647.153C-229.068 467.833 -329.031 220.12 -329.031 -53.5007C-329.031 -327.121 -229.067 -574.839 -67.4528 -754.152C94.1628 -933.463 317.435 -1044.37 564.051 -1044.37ZM1194.58 -753.055C1033.21 -932.087 810.279 -1042.82 564.051 -1042.82C317.817 -1042.82 94.8924 -932.087 -66.4717 -753.055C-227.836 -574.023 -327.643 -326.691 -327.643 -53.5007C-327.643 219.69 -227.836 467.018 -66.4717 646.056C94.8932 825.086 317.817 935.821 564.051 935.821C810.279 935.821 1033.21 825.086 1194.58 646.056C1355.93 467.018 1455.75 219.69 1455.75 -53.5007C1455.75 -326.691 1355.93 -574.023 1194.58 -753.055Z" fill="black" fill-opacity="0.06"/>
<path fill-rule="evenodd" clip-rule="evenodd" d="M564.051 -1058.68C814.249 -1058.68 1040.77 -946.176 1204.74 -764.274C1368.7 -582.372 1470.12 -331.075 1470.12 -53.502C1470.12 224.071 1368.7 475.365 1204.74 657.271C1040.77 839.169 814.249 951.684 564.051 951.684C313.848 951.684 87.3313 839.169 -76.6346 657.271C-240.6 475.365 -342.015 224.072 -342.015 -53.502C-342.015 -331.074 -240.6 -582.372 -76.6346 -764.274C87.3313 -946.176 313.848 -1058.68 564.051 -1058.68ZM1203.73 -763.163C1040.03 -944.781 813.86 -1057.12 564.051 -1057.12C314.238 -1057.12 88.0729 -944.781 -75.6376 -763.163C-239.347 -581.546 -340.606 -330.641 -340.606 -53.502C-340.606 223.637 -239.347 474.541 -75.6376 656.158C88.0729 837.775 314.238 950.114 564.051 950.114C813.86 950.114 1040.03 837.775 1203.73 656.158C1367.45 474.541 1468.71 223.637 1468.71 -53.502C1468.71 -330.641 1367.45 -581.546 1203.73 -763.163Z" fill="black" fill-opacity="0.06"/>
<path d="M564.051 -1073C817.838 -1073 1047.6 -958.888 1213.92 -774.395C1380.23 -589.902 1483.1 -335.027 1483.1 -53.5007C1483.1 228.024 1380.23 482.901 1213.92 667.395C1047.6 851.888 817.838 966 564.051 966C310.263 966 80.5 851.888 -85.8163 667.395C-252.131 482.901 -355 228.025 -355 -53.5007C-355 -335.026 -252.131 -589.901 -85.8163 -774.395C80.4992 -958.888 310.263 -1073 564.051 -1073ZM1212.9 -773.271C1046.85 -957.476 817.44 -1071.41 564.051 -1071.41C310.659 -1071.41 81.2527 -957.476 -84.8026 -773.271C-250.858 -589.066 -353.568 -334.586 -353.568 -53.5007C-353.568 227.586 -250.859 482.067 -84.8026 666.272C81.2527 850.476 310.66 964.413 564.051 964.413C817.44 964.413 1046.85 850.476 1212.9 666.272C1378.96 482.067 1481.67 227.585 1481.67 -53.5007C1481.67 -334.587 1378.96 -589.066 1212.9 -773.271Z" fill="black" fill-opacity="0.06"/>
</svg>
