<svg width="349" height="366" viewBox="0 0 349 366" fill="none" xmlns="http://www.w3.org/2000/svg">
<g filter="url(#filter0_d_97_801)">
<circle cx="174.5" cy="191.5" r="162.5" fill="#333333"/>
</g>
<path d="M139.866 87.3972L168.215 110.09L34.1256 111.498C29.7153 117.084 25.2964 131.83 21.9837 137.715L196.594 129.226C198.752 129.119 200.83 128.394 202.555 127.145C204.281 125.896 205.575 124.181 206.268 122.224C206.961 120.268 207.022 118.16 206.442 116.176C205.862 114.191 204.668 112.423 203.017 111.102L153.722 71.6443C151.543 69.9002 148.724 69.0574 145.884 69.3012C143.044 69.545 140.416 70.8556 138.578 72.9446C136.741 75.0335 135.844 77.7298 136.086 80.4402C136.327 83.1506 137.687 85.6531 139.866 87.3972ZM158.461 150.762C156.326 150.908 154.282 151.658 152.591 152.917C150.9 154.176 149.638 155.887 148.968 157.829C148.297 159.772 148.249 161.859 148.828 163.823C149.407 165.786 150.587 167.537 152.218 168.852L201.513 208.309C203.692 210.053 206.511 210.896 209.351 210.652C212.191 210.408 214.819 209.098 216.657 207.009C218.494 204.92 219.391 202.223 219.149 199.513C218.908 196.803 217.548 194.3 215.369 192.556L186.57 169.504L334.968 159.858C334.968 157.829 327.375 136.177 326.5 134.5L158.461 150.762Z" fill="white"/>
<path d="M93.7845 261.266H90.9425V258.2H100.014V261.266H97.1725V268H93.7845V261.266ZM100.659 260.538H102.927L103.277 261.448C103.52 261.131 103.814 260.902 104.159 260.762C104.514 260.613 104.934 260.538 105.419 260.538H106.371V263.38H105.391C104.85 263.38 104.458 263.511 104.215 263.772C103.973 264.033 103.851 264.435 103.851 264.976V268H100.659V260.538ZM109.577 268.182C108.709 268.182 108.023 267.972 107.519 267.552C107.015 267.132 106.763 266.563 106.763 265.844C106.763 265.153 106.992 264.603 107.449 264.192C107.906 263.772 108.522 263.562 109.297 263.562H111.677V263.114C111.677 262.927 111.598 262.773 111.439 262.652C111.29 262.521 111.098 262.456 110.865 262.456C110.65 262.456 110.468 262.512 110.319 262.624C110.17 262.736 110.086 262.885 110.067 263.072H107.127C107.239 262.176 107.612 261.499 108.247 261.042C108.891 260.575 109.768 260.342 110.879 260.342C112.139 260.342 113.105 260.636 113.777 261.224C114.449 261.812 114.785 262.666 114.785 263.786V268H112.503L112.181 267.188C111.864 267.515 111.481 267.762 111.033 267.93C110.594 268.098 110.109 268.182 109.577 268.182ZM109.815 265.62C109.815 265.797 109.885 265.942 110.025 266.054C110.165 266.157 110.356 266.208 110.599 266.208C110.935 266.208 111.206 266.11 111.411 265.914C111.616 265.718 111.719 265.457 111.719 265.13V265.032H110.599C110.356 265.032 110.165 265.088 110.025 265.2C109.885 265.303 109.815 265.443 109.815 265.62ZM119.563 268.196C118.826 268.196 118.168 268.033 117.589 267.706C117.02 267.379 116.577 266.922 116.259 266.334C115.942 265.737 115.783 265.051 115.783 264.276C115.783 263.501 115.942 262.82 116.259 262.232C116.577 261.635 117.02 261.173 117.589 260.846C118.168 260.51 118.826 260.342 119.563 260.342C120.291 260.342 120.935 260.501 121.495 260.818V257.64H124.687V268H122.405L122.125 267.272C121.799 267.571 121.416 267.799 120.977 267.958C120.548 268.117 120.077 268.196 119.563 268.196ZM118.891 264.276C118.891 264.677 119.013 265.004 119.255 265.256C119.507 265.499 119.834 265.62 120.235 265.62C120.637 265.62 120.959 265.499 121.201 265.256C121.453 265.004 121.579 264.677 121.579 264.276C121.579 263.875 121.453 263.548 121.201 263.296C120.959 263.044 120.637 262.918 120.235 262.918C119.834 262.918 119.507 263.044 119.255 263.296C119.013 263.548 118.891 263.875 118.891 264.276ZM130.13 268.21C129.29 268.21 128.544 268.047 127.89 267.72C127.237 267.384 126.728 266.917 126.364 266.32C126 265.723 125.818 265.041 125.818 264.276C125.818 263.511 126 262.829 126.364 262.232C126.738 261.635 127.251 261.173 127.904 260.846C128.558 260.51 129.309 260.342 130.158 260.342C131.082 260.342 131.876 260.533 132.538 260.916C133.21 261.289 133.714 261.826 134.05 262.526C134.386 263.226 134.531 264.038 134.484 264.962H128.912C128.996 265.298 129.155 265.55 129.388 265.718C129.622 265.886 129.902 265.97 130.228 265.97C130.462 265.97 130.676 265.933 130.872 265.858C131.078 265.774 131.241 265.662 131.362 265.522H134.358C134.05 266.371 133.523 267.034 132.776 267.51C132.039 267.977 131.157 268.21 130.13 268.21ZM131.488 263.492C131.395 263.193 131.241 262.965 131.026 262.806C130.812 262.638 130.541 262.554 130.214 262.554C129.897 262.554 129.626 262.633 129.402 262.792C129.178 262.951 129.02 263.184 128.926 263.492H131.488ZM141.059 258.2H144.587L148.241 268H144.685L144.251 266.782H141.381L140.947 268H137.419L141.059 258.2ZM143.719 264.542L142.851 261.854H142.795L141.941 264.542H143.719ZM152.045 268.21C150.916 268.21 150.02 267.972 149.357 267.496C148.704 267.02 148.377 266.371 148.377 265.55H151.457C151.457 265.737 151.513 265.891 151.625 266.012C151.746 266.133 151.9 266.194 152.087 266.194C152.246 266.194 152.372 266.157 152.465 266.082C152.558 265.998 152.605 265.891 152.605 265.76C152.605 265.592 152.502 265.457 152.297 265.354C152.092 265.242 151.751 265.153 151.275 265.088C150.304 264.948 149.586 264.687 149.119 264.304C148.662 263.921 148.433 263.399 148.433 262.736C148.433 261.961 148.736 261.369 149.343 260.958C149.959 260.547 150.846 260.342 152.003 260.342C153.114 260.342 153.972 260.561 154.579 261C155.186 261.439 155.512 262.083 155.559 262.932H152.591C152.582 262.736 152.521 262.587 152.409 262.484C152.297 262.381 152.143 262.33 151.947 262.33C151.788 262.33 151.662 262.367 151.569 262.442C151.485 262.517 151.443 262.619 151.443 262.75C151.443 262.918 151.541 263.049 151.737 263.142C151.933 263.235 152.302 263.324 152.843 263.408C153.795 263.548 154.504 263.814 154.971 264.206C155.447 264.598 155.685 265.121 155.685 265.774C155.685 266.549 155.368 267.151 154.733 267.58C154.098 268 153.202 268.21 152.045 268.21ZM160.057 268.21C158.927 268.21 158.031 267.972 157.369 267.496C156.715 267.02 156.389 266.371 156.389 265.55H159.469C159.469 265.737 159.525 265.891 159.637 266.012C159.758 266.133 159.912 266.194 160.099 266.194C160.257 266.194 160.383 266.157 160.477 266.082C160.57 265.998 160.617 265.891 160.617 265.76C160.617 265.592 160.514 265.457 160.309 265.354C160.103 265.242 159.763 265.153 159.287 265.088C158.316 264.948 157.597 264.687 157.131 264.304C156.673 263.921 156.445 263.399 156.445 262.736C156.445 261.961 156.748 261.369 157.355 260.958C157.971 260.547 158.857 260.342 160.015 260.342C161.125 260.342 161.984 260.561 162.591 261C163.197 261.439 163.524 262.083 163.571 262.932H160.603C160.593 262.736 160.533 262.587 160.421 262.484C160.309 262.381 160.155 262.33 159.959 262.33C159.8 262.33 159.674 262.367 159.581 262.442C159.497 262.517 159.455 262.619 159.455 262.75C159.455 262.918 159.553 263.049 159.749 263.142C159.945 263.235 160.313 263.324 160.855 263.408C161.807 263.548 162.516 263.814 162.983 264.206C163.459 264.598 163.697 265.121 163.697 265.774C163.697 266.549 163.379 267.151 162.745 267.58C162.11 268 161.214 268.21 160.057 268.21ZM168.712 268.21C167.872 268.21 167.126 268.047 166.472 267.72C165.819 267.384 165.31 266.917 164.946 266.32C164.582 265.723 164.4 265.041 164.4 264.276C164.4 263.511 164.582 262.829 164.946 262.232C165.32 261.635 165.833 261.173 166.486 260.846C167.14 260.51 167.891 260.342 168.74 260.342C169.664 260.342 170.458 260.533 171.12 260.916C171.792 261.289 172.296 261.826 172.632 262.526C172.968 263.226 173.113 264.038 173.066 264.962H167.494C167.578 265.298 167.737 265.55 167.97 265.718C168.204 265.886 168.484 265.97 168.81 265.97C169.044 265.97 169.258 265.933 169.454 265.858C169.66 265.774 169.823 265.662 169.944 265.522H172.94C172.632 266.371 172.105 267.034 171.358 267.51C170.621 267.977 169.739 268.21 168.712 268.21ZM170.07 263.492C169.977 263.193 169.823 262.965 169.608 262.806C169.394 262.638 169.123 262.554 168.796 262.554C168.479 262.554 168.208 262.633 167.984 262.792C167.76 262.951 167.602 263.184 167.508 263.492H170.07ZM178.096 268C176.995 268 176.164 267.753 175.604 267.258C175.053 266.754 174.778 266.007 174.778 265.018V263.002H173.448V260.538H174.106C174.405 260.538 174.633 260.51 174.792 260.454C174.951 260.398 175.067 260.3 175.142 260.16C175.226 260.011 175.291 259.796 175.338 259.516L175.492 258.578H177.97V260.538H179.678V262.988H177.97V264.374C177.97 264.729 178.054 264.99 178.222 265.158C178.399 265.317 178.675 265.396 179.048 265.396H179.762V268H178.096ZM184.174 268.21C183.045 268.21 182.149 267.972 181.486 267.496C180.833 267.02 180.506 266.371 180.506 265.55H183.586C183.586 265.737 183.642 265.891 183.754 266.012C183.875 266.133 184.029 266.194 184.216 266.194C184.375 266.194 184.501 266.157 184.594 266.082C184.687 265.998 184.734 265.891 184.734 265.76C184.734 265.592 184.631 265.457 184.426 265.354C184.221 265.242 183.88 265.153 183.404 265.088C182.433 264.948 181.715 264.687 181.248 264.304C180.791 263.921 180.562 263.399 180.562 262.736C180.562 261.961 180.865 261.369 181.472 260.958C182.088 260.547 182.975 260.342 184.132 260.342C185.243 260.342 186.101 260.561 186.708 261C187.315 261.439 187.641 262.083 187.688 262.932H184.72C184.711 262.736 184.65 262.587 184.538 262.484C184.426 262.381 184.272 262.33 184.076 262.33C183.917 262.33 183.791 262.367 183.698 262.442C183.614 262.517 183.572 262.619 183.572 262.75C183.572 262.918 183.67 263.049 183.866 263.142C184.062 263.235 184.431 263.324 184.972 263.408C185.924 263.548 186.633 263.814 187.1 264.206C187.576 264.598 187.814 265.121 187.814 265.774C187.814 266.549 187.497 267.151 186.862 267.58C186.227 268 185.331 268.21 184.174 268.21ZM193.109 268.182C192.615 268.182 192.209 268.033 191.891 267.734C191.583 267.435 191.429 267.053 191.429 266.586C191.429 266.11 191.583 265.723 191.891 265.424C192.209 265.125 192.615 264.976 193.109 264.976C193.604 264.976 194.005 265.125 194.313 265.424C194.621 265.723 194.775 266.11 194.775 266.586C194.775 267.053 194.617 267.435 194.299 267.734C193.991 268.033 193.595 268.182 193.109 268.182ZM193.109 263.464C192.615 263.464 192.209 263.315 191.891 263.016C191.583 262.717 191.429 262.335 191.429 261.868C191.429 261.392 191.583 261.005 191.891 260.706C192.209 260.407 192.615 260.258 193.109 260.258C193.604 260.258 194.005 260.407 194.313 260.706C194.621 261.005 194.775 261.392 194.775 261.868C194.775 262.335 194.617 262.717 194.299 263.016C193.991 263.315 193.595 263.464 193.109 263.464ZM199.112 258.2H202.5V268H199.112V258.2ZM204.169 260.538H206.437L206.745 261.322C207.044 261.005 207.403 260.762 207.823 260.594C208.243 260.426 208.705 260.342 209.209 260.342C210.17 260.342 210.931 260.631 211.491 261.21C212.051 261.779 212.331 262.563 212.331 263.562V268H209.139V263.954C209.139 263.609 209.064 263.347 208.915 263.17C208.766 262.993 208.551 262.904 208.271 262.904C207.982 262.904 207.758 262.997 207.599 263.184C207.44 263.371 207.361 263.641 207.361 263.996V268H204.169V260.538ZM213.808 260.538H217V268H213.808V260.538ZM213.57 257.934C213.57 257.411 213.738 256.991 214.074 256.674C214.41 256.347 214.853 256.184 215.404 256.184C215.945 256.184 216.384 256.347 216.72 256.674C217.056 256.991 217.224 257.411 217.224 257.934C217.224 258.457 217.056 258.881 216.72 259.208C216.384 259.535 215.945 259.698 215.404 259.698C214.853 259.698 214.41 259.535 214.074 259.208C213.738 258.881 213.57 258.457 213.57 257.934ZM222.639 268C221.538 268 220.707 267.753 220.147 267.258C219.596 266.754 219.321 266.007 219.321 265.018V263.002H217.991V260.538H218.649C218.948 260.538 219.176 260.51 219.335 260.454C219.494 260.398 219.61 260.3 219.685 260.16C219.769 260.011 219.834 259.796 219.881 259.516L220.035 258.578H222.513V260.538H224.221V262.988H222.513V264.374C222.513 264.729 222.597 264.99 222.765 265.158C222.942 265.317 223.218 265.396 223.591 265.396H224.305V268H222.639ZM225.579 260.538H228.771V268H225.579V260.538ZM225.341 257.934C225.341 257.411 225.509 256.991 225.845 256.674C226.181 256.347 226.625 256.184 227.175 256.184C227.717 256.184 228.155 256.347 228.491 256.674C228.827 256.991 228.995 257.411 228.995 257.934C228.995 258.457 228.827 258.881 228.491 259.208C228.155 259.535 227.717 259.698 227.175 259.698C226.625 259.698 226.181 259.535 225.845 259.208C225.509 258.881 225.341 258.457 225.341 257.934ZM232.856 268.182C231.988 268.182 231.302 267.972 230.798 267.552C230.294 267.132 230.042 266.563 230.042 265.844C230.042 265.153 230.271 264.603 230.728 264.192C231.186 263.772 231.802 263.562 232.576 263.562H234.956V263.114C234.956 262.927 234.877 262.773 234.718 262.652C234.569 262.521 234.378 262.456 234.144 262.456C233.93 262.456 233.748 262.512 233.598 262.624C233.449 262.736 233.365 262.885 233.346 263.072H230.406C230.518 262.176 230.892 261.499 231.526 261.042C232.17 260.575 233.048 260.342 234.158 260.342C235.418 260.342 236.384 260.636 237.056 261.224C237.728 261.812 238.064 262.666 238.064 263.786V268H235.782L235.46 267.188C235.143 267.515 234.76 267.762 234.312 267.93C233.874 268.098 233.388 268.182 232.856 268.182ZM233.094 265.62C233.094 265.797 233.164 265.942 233.304 266.054C233.444 266.157 233.636 266.208 233.878 266.208C234.214 266.208 234.485 266.11 234.69 265.914C234.896 265.718 234.998 265.457 234.998 265.13V265.032H233.878C233.636 265.032 233.444 265.088 233.304 265.2C233.164 265.303 233.094 265.443 233.094 265.62ZM243.393 268C242.291 268 241.461 267.753 240.901 267.258C240.35 266.754 240.075 266.007 240.075 265.018V263.002H238.745V260.538H239.403C239.701 260.538 239.93 260.51 240.089 260.454C240.247 260.398 240.364 260.3 240.439 260.16C240.523 260.011 240.588 259.796 240.635 259.516L240.789 258.578H243.267V260.538H244.975V262.988H243.267V264.374C243.267 264.729 243.351 264.99 243.519 265.158C243.696 265.317 243.971 265.396 244.345 265.396H245.059V268H243.393ZM250.145 268.21C249.268 268.21 248.493 268.047 247.821 267.72C247.149 267.393 246.627 266.936 246.253 266.348C245.88 265.751 245.693 265.06 245.693 264.276C245.693 263.492 245.88 262.806 246.253 262.218C246.627 261.621 247.149 261.159 247.821 260.832C248.493 260.505 249.268 260.342 250.145 260.342C251.032 260.342 251.811 260.505 252.483 260.832C253.155 261.159 253.673 261.621 254.037 262.218C254.411 262.806 254.597 263.492 254.597 264.276C254.597 265.06 254.411 265.751 254.037 266.348C253.673 266.936 253.155 267.393 252.483 267.72C251.811 268.047 251.032 268.21 250.145 268.21ZM248.801 264.276C248.801 264.677 248.927 265.004 249.179 265.256C249.431 265.499 249.753 265.62 250.145 265.62C250.537 265.62 250.859 265.499 251.111 265.256C251.363 265.004 251.489 264.677 251.489 264.276C251.489 263.875 251.363 263.548 251.111 263.296C250.859 263.044 250.537 262.918 250.145 262.918C249.753 262.918 249.431 263.044 249.179 263.296C248.927 263.548 248.801 263.875 248.801 264.276ZM255.726 260.538H257.994L258.344 261.448C258.586 261.131 258.88 260.902 259.226 260.762C259.58 260.613 260 260.538 260.486 260.538H261.438V263.38H260.458C259.916 263.38 259.524 263.511 259.282 263.772C259.039 264.033 258.918 264.435 258.918 264.976V268H255.726V260.538ZM74.608 288.21C73.2733 288.21 72.2326 287.911 71.486 287.314C70.7486 286.707 70.38 285.863 70.38 284.78H73.614C73.614 285.097 73.698 285.34 73.866 285.508C74.034 285.676 74.2766 285.76 74.594 285.76C74.8646 285.76 75.0746 285.709 75.224 285.606C75.3733 285.494 75.448 285.34 75.448 285.144C75.448 284.901 75.3173 284.705 75.056 284.556C74.804 284.397 74.398 284.271 73.838 284.178C72.6806 283.982 71.8266 283.632 71.276 283.128C70.7253 282.624 70.45 281.943 70.45 281.084C70.45 280.123 70.8 279.367 71.5 278.816C72.2093 278.265 73.18 277.99 74.412 277.99C75.252 277.99 75.98 278.125 76.596 278.396C77.2213 278.667 77.702 279.059 78.038 279.572C78.3833 280.076 78.5606 280.669 78.57 281.35H75.406C75.406 281.042 75.322 280.809 75.154 280.65C74.9953 280.482 74.7666 280.398 74.468 280.398C74.2066 280.398 74.0013 280.454 73.852 280.566C73.7026 280.678 73.628 280.827 73.628 281.014C73.628 281.238 73.7446 281.42 73.978 281.56C74.2206 281.7 74.636 281.826 75.224 281.938C76.4466 282.171 77.338 282.535 77.898 283.03C78.4673 283.525 78.752 284.192 78.752 285.032C78.752 286.031 78.388 286.81 77.66 287.37C76.932 287.93 75.9146 288.21 74.608 288.21ZM83.9104 288C82.8091 288 81.9784 287.753 81.4184 287.258C80.8677 286.754 80.5924 286.007 80.5924 285.018V283.002H79.2624V280.538H79.9204C80.2191 280.538 80.4477 280.51 80.6064 280.454C80.7651 280.398 80.8817 280.3 80.9564 280.16C81.0404 280.011 81.1057 279.796 81.1524 279.516L81.3064 278.578H83.7844V280.538H85.4924V282.988H83.7844V284.374C83.7844 284.729 83.8684 284.99 84.0364 285.158C84.2137 285.317 84.4891 285.396 84.8624 285.396H85.5764V288H83.9104ZM89.206 288.182C88.338 288.182 87.652 287.972 87.148 287.552C86.644 287.132 86.392 286.563 86.392 285.844C86.392 285.153 86.6207 284.603 87.078 284.192C87.5353 283.772 88.1513 283.562 88.926 283.562H91.306V283.114C91.306 282.927 91.2267 282.773 91.068 282.652C90.9187 282.521 90.7273 282.456 90.494 282.456C90.2793 282.456 90.0973 282.512 89.948 282.624C89.7987 282.736 89.7147 282.885 89.696 283.072H86.756C86.868 282.176 87.2413 281.499 87.876 281.042C88.52 280.575 89.3973 280.342 90.508 280.342C91.768 280.342 92.734 280.636 93.406 281.224C94.078 281.812 94.414 282.666 94.414 283.786V288H92.132L91.81 287.188C91.4927 287.515 91.11 287.762 90.662 287.93C90.2233 288.098 89.738 288.182 89.206 288.182ZM89.444 285.62C89.444 285.797 89.514 285.942 89.654 286.054C89.794 286.157 89.9853 286.208 90.228 286.208C90.564 286.208 90.8347 286.11 91.04 285.914C91.2453 285.718 91.348 285.457 91.348 285.13V285.032H90.228C89.9853 285.032 89.794 285.088 89.654 285.2C89.514 285.303 89.444 285.443 89.444 285.62ZM95.8742 280.538H98.1422L98.4922 281.448C98.7348 281.131 99.0288 280.902 99.3742 280.762C99.7288 280.613 100.149 280.538 100.634 280.538H101.586V283.38H100.606C100.065 283.38 99.6728 283.511 99.4302 283.772C99.1875 284.033 99.0662 284.435 99.0662 284.976V288H95.8742V280.538ZM106.811 288C105.709 288 104.879 287.753 104.319 287.258C103.768 286.754 103.493 286.007 103.493 285.018V283.002H102.163V280.538H102.821C103.119 280.538 103.348 280.51 103.507 280.454C103.665 280.398 103.782 280.3 103.857 280.16C103.941 280.011 104.006 279.796 104.053 279.516L104.207 278.578H106.685V280.538H108.393V282.988H106.685V284.374C106.685 284.729 106.769 284.99 106.937 285.158C107.114 285.317 107.389 285.396 107.763 285.396H108.477V288H106.811ZM112.889 288.21C111.759 288.21 110.863 287.972 110.201 287.496C109.547 287.02 109.221 286.371 109.221 285.55H112.301C112.301 285.737 112.357 285.891 112.469 286.012C112.59 286.133 112.744 286.194 112.931 286.194C113.089 286.194 113.215 286.157 113.309 286.082C113.402 285.998 113.449 285.891 113.449 285.76C113.449 285.592 113.346 285.457 113.141 285.354C112.935 285.242 112.595 285.153 112.119 285.088C111.148 284.948 110.429 284.687 109.963 284.304C109.505 283.921 109.277 283.399 109.277 282.736C109.277 281.961 109.58 281.369 110.187 280.958C110.803 280.547 111.689 280.342 112.847 280.342C113.957 280.342 114.816 280.561 115.423 281C116.029 281.439 116.356 282.083 116.403 282.932H113.435C113.425 282.736 113.365 282.587 113.253 282.484C113.141 282.381 112.987 282.33 112.791 282.33C112.632 282.33 112.506 282.367 112.413 282.442C112.329 282.517 112.287 282.619 112.287 282.75C112.287 282.918 112.385 283.049 112.581 283.142C112.777 283.235 113.145 283.324 113.687 283.408C114.639 283.548 115.348 283.814 115.815 284.206C116.291 284.598 116.529 285.121 116.529 285.774C116.529 286.549 116.211 287.151 115.577 287.58C114.942 288 114.046 288.21 112.889 288.21ZM123.176 278.2H126.704L130.358 288H126.802L126.368 286.782H123.498L123.064 288H119.536L123.176 278.2ZM125.836 284.542L124.968 281.854H124.912L124.058 284.542H125.836ZM135.88 281.266H133.038V278.2H142.11V281.266H139.268V288H135.88V281.266ZM142.755 280.538H145.023L145.373 281.448C145.616 281.131 145.91 280.902 146.255 280.762C146.61 280.613 147.03 280.538 147.515 280.538H148.467V283.38H147.487C146.946 283.38 146.554 283.511 146.311 283.772C146.068 284.033 145.947 284.435 145.947 284.976V288H142.755V280.538ZM151.673 288.182C150.805 288.182 150.119 287.972 149.615 287.552C149.111 287.132 148.859 286.563 148.859 285.844C148.859 285.153 149.087 284.603 149.545 284.192C150.002 283.772 150.618 283.562 151.393 283.562H153.773V283.114C153.773 282.927 153.693 282.773 153.535 282.652C153.385 282.521 153.194 282.456 152.961 282.456C152.746 282.456 152.564 282.512 152.415 282.624C152.265 282.736 152.181 282.885 152.163 283.072H149.223C149.335 282.176 149.708 281.499 150.343 281.042C150.987 280.575 151.864 280.342 152.975 280.342C154.235 280.342 155.201 280.636 155.873 281.224C156.545 281.812 156.881 282.666 156.881 283.786V288H154.599L154.277 287.188C153.959 287.515 153.577 287.762 153.129 287.93C152.69 288.098 152.205 288.182 151.673 288.182ZM151.911 285.62C151.911 285.797 151.981 285.942 152.121 286.054C152.261 286.157 152.452 286.208 152.695 286.208C153.031 286.208 153.301 286.11 153.507 285.914C153.712 285.718 153.815 285.457 153.815 285.13V285.032H152.695C152.452 285.032 152.261 285.088 152.121 285.2C151.981 285.303 151.911 285.443 151.911 285.62ZM161.659 288.196C160.922 288.196 160.264 288.033 159.685 287.706C159.116 287.379 158.672 286.922 158.355 286.334C158.038 285.737 157.879 285.051 157.879 284.276C157.879 283.501 158.038 282.82 158.355 282.232C158.672 281.635 159.116 281.173 159.685 280.846C160.264 280.51 160.922 280.342 161.659 280.342C162.387 280.342 163.031 280.501 163.591 280.818V277.64H166.783V288H164.501L164.221 287.272C163.894 287.571 163.512 287.799 163.073 287.958C162.644 288.117 162.172 288.196 161.659 288.196ZM160.987 284.276C160.987 284.677 161.108 285.004 161.351 285.256C161.603 285.499 161.93 285.62 162.331 285.62C162.732 285.62 163.054 285.499 163.297 285.256C163.549 285.004 163.675 284.677 163.675 284.276C163.675 283.875 163.549 283.548 163.297 283.296C163.054 283.044 162.732 282.918 162.331 282.918C161.93 282.918 161.603 283.044 161.351 283.296C161.108 283.548 160.987 283.875 160.987 284.276ZM172.226 288.21C171.386 288.21 170.639 288.047 169.986 287.72C169.333 287.384 168.824 286.917 168.46 286.32C168.096 285.723 167.914 285.041 167.914 284.276C167.914 283.511 168.096 282.829 168.46 282.232C168.833 281.635 169.347 281.173 170 280.846C170.653 280.51 171.405 280.342 172.254 280.342C173.178 280.342 173.971 280.533 174.634 280.916C175.306 281.289 175.81 281.826 176.146 282.526C176.482 283.226 176.627 284.038 176.58 284.962H171.008C171.092 285.298 171.251 285.55 171.484 285.718C171.717 285.886 171.997 285.97 172.324 285.97C172.557 285.97 172.772 285.933 172.968 285.858C173.173 285.774 173.337 285.662 173.458 285.522H176.454C176.146 286.371 175.619 287.034 174.872 287.51C174.135 287.977 173.253 288.21 172.226 288.21ZM173.584 283.492C173.491 283.193 173.337 282.965 173.122 282.806C172.907 282.638 172.637 282.554 172.31 282.554C171.993 282.554 171.722 282.633 171.498 282.792C171.274 282.951 171.115 283.184 171.022 283.492H173.584ZM179.515 278.2H183.099L183.659 280.328L184.429 282.974H184.485L185.255 280.328L185.829 278.2H189.175L189.749 280.328L190.533 283.03H190.589L191.373 280.328L191.933 278.2H195.489L192.465 288H188.937L188.321 285.844L187.523 283.142H187.481L186.683 285.844L186.081 288H182.539L179.515 278.2ZM196.157 280.538H199.349V288H196.157V280.538ZM195.919 277.934C195.919 277.411 196.087 276.991 196.423 276.674C196.759 276.347 197.203 276.184 197.753 276.184C198.295 276.184 198.733 276.347 199.069 276.674C199.405 276.991 199.573 277.411 199.573 277.934C199.573 278.457 199.405 278.881 199.069 279.208C198.733 279.535 198.295 279.698 197.753 279.698C197.203 279.698 196.759 279.535 196.423 279.208C196.087 278.881 195.919 278.457 195.919 277.934ZM204.989 288C203.887 288 203.057 287.753 202.497 287.258C201.946 286.754 201.671 286.007 201.671 285.018V283.002H200.341V280.538H200.999C201.297 280.538 201.526 280.51 201.685 280.454C201.843 280.398 201.96 280.3 202.035 280.16C202.119 280.011 202.184 279.796 202.231 279.516L202.385 278.578H204.863V280.538H206.571V282.988H204.863V284.374C204.863 284.729 204.947 284.99 205.115 285.158C205.292 285.317 205.567 285.396 205.941 285.396H206.655V288H204.989ZM207.929 277.64H211.121V280.916C211.662 280.533 212.306 280.342 213.053 280.342C213.986 280.342 214.724 280.631 215.265 281.21C215.816 281.779 216.091 282.559 216.091 283.548V288H212.899V283.954C212.899 283.609 212.824 283.347 212.675 283.17C212.526 282.993 212.311 282.904 212.031 282.904C211.742 282.904 211.518 282.997 211.359 283.184C211.2 283.371 211.121 283.641 211.121 283.996V288H207.929V277.64ZM223.241 278.2H226.769L230.423 288H226.867L226.433 286.782H223.563L223.129 288H219.601L223.241 278.2ZM225.901 284.542L225.033 281.854H224.977L224.123 284.542H225.901ZM231.267 280.538H233.535L233.843 281.322C234.141 281.005 234.501 280.762 234.921 280.594C235.341 280.426 235.803 280.342 236.307 280.342C237.268 280.342 238.029 280.631 238.589 281.21C239.149 281.779 239.429 282.563 239.429 283.562V288H236.237V283.954C236.237 283.609 236.162 283.347 236.013 283.17C235.863 282.993 235.649 282.904 235.369 282.904C235.079 282.904 234.855 282.997 234.697 283.184C234.538 283.371 234.459 283.641 234.459 283.996V288H231.267V280.538ZM244.895 288.21C244.018 288.21 243.243 288.047 242.571 287.72C241.899 287.393 241.377 286.936 241.003 286.348C240.63 285.751 240.443 285.06 240.443 284.276C240.443 283.492 240.63 282.806 241.003 282.218C241.377 281.621 241.899 281.159 242.571 280.832C243.243 280.505 244.018 280.342 244.895 280.342C245.782 280.342 246.561 280.505 247.233 280.832C247.905 281.159 248.423 281.621 248.787 282.218C249.161 282.806 249.347 283.492 249.347 284.276C249.347 285.06 249.161 285.751 248.787 286.348C248.423 286.936 247.905 287.393 247.233 287.72C246.561 288.047 245.782 288.21 244.895 288.21ZM243.551 284.276C243.551 284.677 243.677 285.004 243.929 285.256C244.181 285.499 244.503 285.62 244.895 285.62C245.287 285.62 245.609 285.499 245.861 285.256C246.113 285.004 246.239 284.677 246.239 284.276C246.239 283.875 246.113 283.548 245.861 283.296C245.609 283.044 245.287 282.918 244.895 282.918C244.503 282.918 244.181 283.044 243.929 283.296C243.677 283.548 243.551 283.875 243.551 284.276ZM254.371 288C253.27 288 252.439 287.753 251.879 287.258C251.329 286.754 251.053 286.007 251.053 285.018V283.002H249.723V280.538H250.381C250.68 280.538 250.909 280.51 251.067 280.454C251.226 280.398 251.343 280.3 251.417 280.16C251.501 280.011 251.567 279.796 251.613 279.516L251.767 278.578H254.245V280.538H255.953V282.988H254.245V284.374C254.245 284.729 254.329 284.99 254.497 285.158C254.675 285.317 254.95 285.396 255.323 285.396H256.037V288H254.371ZM257.312 277.64H260.504V280.916C261.045 280.533 261.689 280.342 262.436 280.342C263.369 280.342 264.106 280.631 264.648 281.21C265.198 281.779 265.474 282.559 265.474 283.548V288H262.282V283.954C262.282 283.609 262.207 283.347 262.058 283.17C261.908 282.993 261.694 282.904 261.414 282.904C261.124 282.904 260.9 282.997 260.742 283.184C260.583 283.371 260.504 283.641 260.504 283.996V288H257.312V277.64ZM270.8 288.21C269.96 288.21 269.214 288.047 268.56 287.72C267.907 287.384 267.398 286.917 267.034 286.32C266.67 285.723 266.488 285.041 266.488 284.276C266.488 283.511 266.67 282.829 267.034 282.232C267.408 281.635 267.921 281.173 268.574 280.846C269.228 280.51 269.979 280.342 270.828 280.342C271.752 280.342 272.546 280.533 273.208 280.916C273.88 281.289 274.384 281.826 274.72 282.526C275.056 283.226 275.201 284.038 275.154 284.962H269.582C269.666 285.298 269.825 285.55 270.058 285.718C270.292 285.886 270.572 285.97 270.898 285.97C271.132 285.97 271.346 285.933 271.542 285.858C271.748 285.774 271.911 285.662 272.032 285.522H275.028C274.72 286.371 274.193 287.034 273.446 287.51C272.709 287.977 271.827 288.21 270.8 288.21ZM272.158 283.492C272.065 283.193 271.911 282.965 271.696 282.806C271.482 282.638 271.211 282.554 270.884 282.554C270.567 282.554 270.296 282.633 270.072 282.792C269.848 282.951 269.69 283.184 269.596 283.492H272.158ZM276.288 280.538H278.556L278.906 281.448C279.149 281.131 279.443 280.902 279.788 280.762C280.143 280.613 280.563 280.538 281.048 280.538H282V283.38H281.02C280.479 283.38 280.087 283.511 279.844 283.772C279.602 284.033 279.48 284.435 279.48 284.976V288H276.288V280.538ZM121.375 308.21C120.451 308.21 119.649 308.042 118.967 307.706C118.295 307.361 117.777 306.866 117.413 306.222C117.059 305.578 116.881 304.813 116.881 303.926V298.2H120.255V303.744C120.255 304.649 120.629 305.102 121.375 305.102C122.122 305.102 122.495 304.649 122.495 303.744V298.2H125.883V303.926C125.883 304.813 125.701 305.578 125.337 306.222C124.983 306.866 124.465 307.361 123.783 307.706C123.102 308.042 122.299 308.21 121.375 308.21ZM130.696 308.21C129.567 308.21 128.671 307.972 128.008 307.496C127.355 307.02 127.028 306.371 127.028 305.55H130.108C130.108 305.737 130.164 305.891 130.276 306.012C130.398 306.133 130.552 306.194 130.738 306.194C130.897 306.194 131.023 306.157 131.116 306.082C131.21 305.998 131.256 305.891 131.256 305.76C131.256 305.592 131.154 305.457 130.948 305.354C130.743 305.242 130.402 305.153 129.926 305.088C128.956 304.948 128.237 304.687 127.77 304.304C127.313 303.921 127.084 303.399 127.084 302.736C127.084 301.961 127.388 301.369 127.994 300.958C128.61 300.547 129.497 300.342 130.654 300.342C131.765 300.342 132.624 300.561 133.23 301C133.837 301.439 134.164 302.083 134.21 302.932H131.242C131.233 302.736 131.172 302.587 131.06 302.484C130.948 302.381 130.794 302.33 130.598 302.33C130.44 302.33 130.314 302.367 130.22 302.442C130.136 302.517 130.094 302.619 130.094 302.75C130.094 302.918 130.192 303.049 130.388 303.142C130.584 303.235 130.953 303.324 131.494 303.408C132.446 303.548 133.156 303.814 133.622 304.206C134.098 304.598 134.336 305.121 134.336 305.774C134.336 306.549 134.019 307.151 133.384 307.58C132.75 308 131.854 308.21 130.696 308.21ZM139.352 308.21C138.512 308.21 137.765 308.047 137.112 307.72C136.459 307.384 135.95 306.917 135.586 306.32C135.222 305.723 135.04 305.041 135.04 304.276C135.04 303.511 135.222 302.829 135.586 302.232C135.959 301.635 136.473 301.173 137.126 300.846C137.779 300.51 138.531 300.342 139.38 300.342C140.304 300.342 141.097 300.533 141.76 300.916C142.432 301.289 142.936 301.826 143.272 302.526C143.608 303.226 143.753 304.038 143.706 304.962H138.134C138.218 305.298 138.377 305.55 138.61 305.718C138.843 305.886 139.123 305.97 139.45 305.97C139.683 305.97 139.898 305.933 140.094 305.858C140.299 305.774 140.463 305.662 140.584 305.522H143.58C143.272 306.371 142.745 307.034 141.998 307.51C141.261 307.977 140.379 308.21 139.352 308.21ZM140.71 303.492C140.617 303.193 140.463 302.965 140.248 302.806C140.033 302.638 139.763 302.554 139.436 302.554C139.119 302.554 138.848 302.633 138.624 302.792C138.4 302.951 138.241 303.184 138.148 303.492H140.71ZM144.84 300.538H147.108L147.458 301.448C147.701 301.131 147.995 300.902 148.34 300.762C148.695 300.613 149.115 300.538 149.6 300.538H150.552V303.38H149.572C149.031 303.38 148.639 303.511 148.396 303.772C148.153 304.033 148.032 304.435 148.032 304.976V308H144.84V300.538ZM154.549 298.2H161.297V301.112H157.909V302.624H160.947V305.41H157.909V308H154.549V298.2ZM166.303 308.21C165.425 308.21 164.651 308.047 163.979 307.72C163.307 307.393 162.784 306.936 162.411 306.348C162.037 305.751 161.851 305.06 161.851 304.276C161.851 303.492 162.037 302.806 162.411 302.218C162.784 301.621 163.307 301.159 163.979 300.832C164.651 300.505 165.425 300.342 166.303 300.342C167.189 300.342 167.969 300.505 168.641 300.832C169.313 301.159 169.831 301.621 170.195 302.218C170.568 302.806 170.755 303.492 170.755 304.276C170.755 305.06 170.568 305.751 170.195 306.348C169.831 306.936 169.313 307.393 168.641 307.72C167.969 308.047 167.189 308.21 166.303 308.21ZM164.959 304.276C164.959 304.677 165.085 305.004 165.337 305.256C165.589 305.499 165.911 305.62 166.303 305.62C166.695 305.62 167.017 305.499 167.269 305.256C167.521 305.004 167.647 304.677 167.647 304.276C167.647 303.875 167.521 303.548 167.269 303.296C167.017 303.044 166.695 302.918 166.303 302.918C165.911 302.918 165.589 303.044 165.337 303.296C165.085 303.548 164.959 303.875 164.959 304.276ZM171.883 300.538H174.151L174.501 301.448C174.744 301.131 175.038 300.902 175.383 300.762C175.738 300.613 176.158 300.538 176.643 300.538H177.595V303.38H176.615C176.074 303.38 175.682 303.511 175.439 303.772C175.196 304.033 175.075 304.435 175.075 304.976V308H171.883V300.538ZM184.064 298.2H187.592L191.246 308H187.69L187.256 306.782H184.386L183.952 308H180.424L184.064 298.2ZM186.724 304.542L185.856 301.854H185.8L184.946 304.542H186.724ZM192.09 300.538H194.358L194.666 301.322C194.965 301.005 195.324 300.762 195.744 300.594C196.164 300.426 196.626 300.342 197.13 300.342C198.091 300.342 198.852 300.631 199.412 301.21C199.972 301.779 200.252 302.563 200.252 303.562V308H197.06V303.954C197.06 303.609 196.985 303.347 196.836 303.17C196.687 302.993 196.472 302.904 196.192 302.904C195.903 302.904 195.679 302.997 195.52 303.184C195.361 303.371 195.282 303.641 195.282 303.996V308H192.09V300.538ZM204.93 298.2H207.674L210.81 302.428H210.866L210.838 301.182V298.2H214.156V308H211.412L208.262 303.73H208.22L208.248 305.018V308H204.93V298.2ZM215.908 298.2H222.656V301.112H219.268V302.624H222.306V305.41H219.268V308H215.908V298.2ZM226.354 301.266H223.512V298.2H232.584V301.266H229.742V308H226.354V301.266ZM233.927 308.182C233.432 308.182 233.026 308.033 232.709 307.734C232.401 307.435 232.247 307.053 232.247 306.586C232.247 306.11 232.401 305.723 232.709 305.424C233.026 305.125 233.432 304.976 233.927 304.976C234.421 304.976 234.823 305.125 235.131 305.424C235.439 305.723 235.593 306.11 235.593 306.586C235.593 307.053 235.434 307.435 235.117 307.734C234.809 308.033 234.412 308.182 233.927 308.182Z" fill="#AEFFDE"/>
<defs>
<filter id="filter0_d_97_801" x="0.614234" y="18.0209" width="347.772" height="347.772" filterUnits="userSpaceOnUse" color-interpolation-filters="sRGB">
<feFlood flood-opacity="0" result="BackgroundImageFix"/>
<feColorMatrix in="SourceAlpha" type="matrix" values="0 0 0 0 0 0 0 0 0 0 0 0 0 0 0 0 0 0 127 0" result="hardAlpha"/>
<feMorphology radius="9.75923" operator="dilate" in="SourceAlpha" result="effect1_dropShadow_97_801"/>
<feOffset dy="0.406634"/>
<feGaussianBlur stdDeviation="0.813269"/>
<feComposite in2="hardAlpha" operator="out"/>
<feColorMatrix type="matrix" values="0 0 0 0 0.682353 0 0 0 0 1 0 0 0 0 0.870588 0 0 0 0.33 0"/>
<feBlend mode="normal" in2="BackgroundImageFix" result="effect1_dropShadow_97_801"/>
<feBlend mode="normal" in="SourceGraphic" in2="effect1_dropShadow_97_801" result="shape"/>
</filter>
</defs>
</svg>
